<svg id="svg" xmlns="http://www.w3.org/2000/svg" xmlns:xlink="http://www.w3.org/1999/xlink" width="400" height="400" viewBox="0, 0, 400,400"><g id="svgg"><path id="path0" d="M156.113 102.900 C 155.901 103.175,154.731 105.110,153.513 107.200 C 147.757 117.073,145.393 121.173,144.288 123.200 C 143.628 124.410,142.879 125.670,142.625 126.000 C 142.370 126.330,141.647 127.590,141.018 128.800 C 140.389 130.010,139.542 131.478,139.137 132.062 C 138.732 132.646,138.400 133.234,138.400 133.370 C 138.400 133.505,137.910 134.377,137.310 135.308 C 136.711 136.239,136.023 137.360,135.782 137.800 C 135.542 138.240,134.837 139.500,134.216 140.600 C 133.596 141.700,132.635 143.410,132.082 144.400 C 131.528 145.390,130.383 147.343,129.537 148.741 C 128.692 150.138,128.000 151.362,128.000 151.460 C 128.000 151.558,127.370 152.623,126.600 153.827 C 125.830 155.031,125.200 156.081,125.200 156.162 C 125.200 156.242,123.697 158.894,121.860 162.054 C 120.023 165.214,118.062 168.610,117.501 169.600 C 114.966 174.078,112.880 177.623,112.506 178.090 C 112.281 178.371,111.974 179.005,111.822 179.500 L 111.546 180.400 194.573 180.400 C 240.238 180.400,277.600 180.306,277.600 180.192 C 277.600 179.999,276.471 178.029,275.303 176.185 C 275.030 175.753,274.263 174.410,273.600 173.200 C 272.303 170.835,272.067 170.428,268.890 165.088 C 267.740 163.156,266.800 161.497,266.800 161.402 C 266.800 161.306,265.810 159.595,264.600 157.600 C 263.390 155.605,262.400 153.871,262.400 153.748 C 262.400 153.624,262.068 153.046,261.663 152.462 C 261.258 151.878,260.411 150.410,259.782 149.200 C 259.153 147.990,258.430 146.730,258.175 146.400 C 257.921 146.070,257.173 144.810,256.515 143.600 C 255.856 142.390,254.777 140.491,254.116 139.379 C 253.455 138.267,252.463 136.557,251.911 135.579 C 251.359 134.601,249.624 131.609,248.054 128.931 C 246.484 126.253,245.200 123.967,245.200 123.851 C 245.200 123.735,244.660 122.840,244.000 121.862 C 243.340 120.884,242.800 119.958,242.800 119.804 C 242.800 119.650,242.466 119.046,242.057 118.462 C 241.649 117.878,240.839 116.545,240.257 115.500 C 239.676 114.455,238.724 112.745,238.143 111.700 C 237.561 110.655,236.777 109.350,236.400 108.800 C 236.023 108.250,235.643 107.620,235.557 107.400 C 234.993 105.965,232.665 102.436,232.394 102.604 C 232.213 102.716,231.390 104.021,230.566 105.504 C 229.741 106.987,228.917 108.260,228.733 108.333 C 228.550 108.407,228.400 108.628,228.400 108.825 C 228.400 109.023,226.759 112.023,224.754 115.492 C 222.749 118.961,220.653 122.610,220.097 123.600 C 219.541 124.590,218.789 125.850,218.427 126.400 C 218.064 126.950,217.254 128.390,216.627 129.600 C 214.185 134.312,213.346 134.948,212.289 132.892 C 211.980 132.291,210.529 129.752,209.064 127.248 C 207.599 124.745,206.400 122.612,206.400 122.510 C 206.400 122.407,206.066 121.846,205.657 121.262 C 205.249 120.678,204.461 119.390,203.907 118.400 C 203.352 117.410,202.223 115.430,201.398 114.000 C 200.572 112.570,199.350 110.410,198.681 109.200 C 198.012 107.990,197.046 106.329,196.533 105.508 C 196.020 104.687,195.600 103.854,195.600 103.657 C 195.600 101.147,193.822 102.853,191.073 108.000 C 190.426 109.210,189.561 110.678,189.149 111.262 C 188.737 111.846,188.400 112.416,188.400 112.529 C 188.400 112.642,187.561 114.144,186.535 115.867 C 183.785 120.486,182.063 123.483,180.483 126.400 C 179.709 127.830,178.743 129.478,178.338 130.062 C 177.932 130.646,177.600 131.220,177.600 131.339 C 177.600 131.457,177.228 132.184,176.774 132.955 C 175.682 134.805,175.173 134.534,173.224 131.063 C 171.445 127.896,170.863 126.885,164.948 116.700 C 164.150 115.325,162.950 113.210,162.281 112.000 C 161.612 110.790,160.646 109.129,160.133 108.308 C 159.620 107.487,159.200 106.734,159.200 106.635 C 159.200 106.419,156.722 102.400,156.589 102.400 C 156.539 102.400,156.325 102.625,156.113 102.900 M163.090 130.000 C 170.580 143.071,170.400 142.742,170.400 143.407 C 170.400 143.930,167.822 148.560,165.341 152.491 C 164.823 153.312,164.400 154.080,164.400 154.199 C 164.400 154.318,163.940 155.144,163.379 156.034 C 162.817 156.924,162.024 158.245,161.617 158.971 C 161.209 159.696,159.314 163.014,157.406 166.345 L 153.935 172.400 139.968 172.400 C 128.967 172.400,126.000 172.292,126.000 171.894 C 126.000 171.615,126.742 170.130,127.648 168.594 C 129.192 165.976,129.644 165.200,131.551 161.900 C 134.674 156.495,135.445 155.142,136.508 153.200 C 137.170 151.990,137.957 150.716,138.256 150.369 C 138.555 150.021,138.800 149.613,138.800 149.461 C 138.800 149.309,139.220 148.513,139.733 147.692 C 140.246 146.871,141.212 145.210,141.880 144.000 C 144.072 140.032,148.099 133.050,149.727 130.400 C 150.605 128.970,151.953 126.630,152.724 125.200 C 153.494 123.770,154.457 122.122,154.862 121.538 C 155.268 120.954,155.600 120.294,155.600 120.072 C 155.600 119.452,156.545 119.240,157.038 119.748 C 157.279 119.997,160.002 124.610,163.090 130.000 M195.716 120.708 C 196.028 121.309,198.470 125.560,201.142 130.157 C 203.814 134.753,206.000 138.571,206.000 138.643 C 206.000 138.714,206.540 139.624,207.200 140.664 C 208.872 143.301,209.034 142.819,203.010 153.200 C 202.180 154.630,201.048 156.610,200.493 157.600 C 199.939 158.590,199.151 159.878,198.743 160.462 C 198.334 161.046,198.000 161.607,198.000 161.710 C 198.000 161.886,193.584 169.567,192.372 171.500 L 191.808 172.400 177.877 172.400 C 163.948 172.400,163.946 172.400,164.210 171.568 C 164.449 170.817,166.360 167.376,170.302 160.600 C 171.070 159.280,172.152 157.390,172.707 156.400 C 173.261 155.410,174.011 154.150,174.373 153.600 C 174.736 153.050,175.556 151.610,176.196 150.400 C 176.835 149.190,178.223 146.792,179.279 145.071 C 180.336 143.350,181.200 141.879,181.200 141.803 C 181.200 141.727,182.280 139.836,183.600 137.600 C 184.920 135.364,186.000 133.456,186.000 133.361 C 186.000 133.265,186.789 131.884,187.753 130.293 C 189.576 127.286,190.640 125.451,192.331 122.400 C 194.232 118.971,194.694 118.739,195.716 120.708 M234.054 121.290 C 234.646 122.297,235.570 123.903,236.108 124.860 C 237.396 127.149,238.092 128.351,241.953 134.947 C 243.739 137.999,245.200 140.581,245.200 140.686 C 245.200 140.791,245.532 141.354,245.938 141.938 C 246.343 142.522,247.303 144.170,248.071 145.600 C 248.838 147.030,250.127 149.226,250.933 150.481 C 251.740 151.735,252.400 152.841,252.400 152.937 C 252.400 153.033,254.310 156.417,256.643 160.456 C 262.673 170.892,263.198 171.869,262.917 172.149 C 262.467 172.600,202.471 172.439,202.192 171.987 C 202.051 171.760,202.335 170.905,202.823 170.087 C 203.310 169.269,204.062 167.970,204.495 167.200 C 205.952 164.603,209.707 158.211,210.657 156.709 C 211.176 155.888,211.600 155.141,211.600 155.047 C 211.600 154.885,212.652 153.016,215.849 147.500 C 216.646 146.125,217.611 144.460,217.993 143.800 C 218.375 143.140,219.228 141.691,219.887 140.579 C 220.547 139.467,221.536 137.757,222.086 136.779 C 223.350 134.532,225.187 131.348,229.054 124.700 C 229.854 123.325,230.880 121.522,231.333 120.693 C 232.333 118.863,232.672 118.937,234.054 121.290 M309.685 220.800 C 308.592 223.110,307.247 225.990,306.695 227.200 C 304.737 231.497,303.267 234.655,301.247 238.910 C 300.121 241.280,299.200 243.298,299.200 243.394 C 299.200 243.490,298.030 246.020,296.600 249.015 C 295.170 252.010,294.000 254.531,294.000 254.616 C 294.000 254.777,290.874 261.454,287.778 267.905 C 285.337 272.992,285.260 272.800,289.758 272.800 L 293.516 272.800 294.758 270.225 C 295.441 268.809,296.000 267.556,296.000 267.440 C 296.000 267.325,296.830 265.513,297.844 263.415 L 299.688 259.600 311.249 259.600 L 322.810 259.600 323.670 261.500 C 325.687 265.956,326.376 267.522,327.231 269.600 C 327.729 270.810,328.308 272.025,328.517 272.300 C 328.958 272.879,336.400 273.022,336.400 272.451 C 336.400 272.032,335.273 269.394,333.158 264.861 C 332.301 263.024,331.600 261.365,331.600 261.173 C 331.600 260.981,331.278 260.234,330.885 259.512 C 330.492 258.790,329.829 257.390,329.411 256.400 C 328.993 255.410,327.875 252.930,326.926 250.889 C 325.976 248.848,325.200 247.089,325.200 246.981 C 325.200 246.872,324.480 245.261,323.600 243.400 C 322.720 241.539,322.000 239.932,322.000 239.829 C 322.000 239.727,321.370 238.283,320.600 236.621 C 319.830 234.960,318.570 232.240,317.800 230.579 C 317.030 228.917,316.400 227.432,316.400 227.277 C 316.400 227.123,315.742 225.648,314.938 223.999 C 314.134 222.349,313.071 220.010,312.575 218.800 L 311.673 216.600 309.685 220.800 M65.461 219.700 C 64.636 221.559,62.000 228.586,62.000 228.924 C 62.000 229.081,61.656 229.972,61.235 230.904 C 60.814 231.837,59.819 234.400,59.023 236.600 C 58.228 238.800,57.418 240.960,57.224 241.400 C 56.571 242.881,54.000 249.837,54.000 250.124 C 54.000 250.281,53.659 251.172,53.243 252.104 C 52.827 253.037,52.377 254.130,52.243 254.533 C 51.878 255.632,51.169 255.160,50.516 253.383 C 49.925 251.777,48.220 247.343,47.561 245.700 C 46.841 243.904,46.323 242.567,42.178 231.800 C 40.484 227.400,38.761 223.037,38.349 222.104 C 37.937 221.172,37.600 220.220,37.600 219.989 C 37.600 219.276,30.764 219.674,30.298 220.414 C 29.973 220.932,33.549 230.769,36.764 238.200 C 36.955 238.640,37.779 240.710,38.596 242.800 C 39.413 244.890,40.423 247.363,40.841 248.296 C 41.258 249.228,41.600 250.176,41.600 250.401 C 41.600 250.626,41.765 251.123,41.966 251.505 C 42.433 252.389,43.240 254.355,44.387 257.400 C 44.884 258.720,45.547 260.381,45.860 261.091 C 46.173 261.802,46.887 263.602,47.446 265.091 C 48.006 266.581,48.737 268.430,49.072 269.200 C 49.770 270.804,50.120 271.670,50.808 273.500 C 51.279 274.751,52.400 275.321,52.400 274.308 C 52.400 273.857,53.994 269.286,54.810 267.400 C 55.000 266.960,55.803 264.800,56.595 262.600 C 57.386 260.400,58.189 258.240,58.380 257.800 C 58.570 257.360,59.569 254.750,60.600 252.000 C 61.631 249.250,62.626 246.640,62.811 246.200 C 62.997 245.760,63.733 243.821,64.447 241.891 C 65.851 238.093,66.296 237.819,67.139 240.232 C 67.756 241.996,68.827 244.977,69.966 248.100 C 70.387 249.255,71.212 251.550,71.798 253.200 C 72.384 254.850,73.012 256.560,73.192 257.000 C 73.372 257.440,73.736 258.430,74.000 259.200 C 74.264 259.970,74.624 260.960,74.798 261.400 C 74.973 261.840,75.418 263.100,75.789 264.200 C 76.159 265.300,76.618 266.560,76.808 267.000 C 76.999 267.440,77.739 269.455,78.453 271.477 C 79.946 275.704,79.954 275.705,81.390 272.104 C 81.982 270.617,82.712 268.860,83.010 268.200 C 83.309 267.540,84.379 265.020,85.388 262.600 C 86.397 260.180,87.378 257.840,87.567 257.400 C 87.756 256.960,88.392 255.430,88.980 254.000 C 89.568 252.570,90.398 250.708,90.825 249.862 C 91.251 249.016,91.600 248.167,91.600 247.974 C 91.600 247.781,92.050 246.640,92.600 245.437 C 93.150 244.235,93.600 243.148,93.600 243.021 C 93.600 242.895,93.960 241.983,94.400 240.996 C 94.840 240.008,95.567 238.377,96.016 237.371 C 96.464 236.366,97.380 234.161,98.051 232.471 C 98.722 230.782,99.595 228.680,99.991 227.800 C 100.386 226.920,101.106 225.210,101.589 224.000 C 102.073 222.790,102.633 221.487,102.834 221.105 C 103.579 219.690,103.280 219.569,99.342 219.686 C 95.128 219.811,95.389 219.657,94.057 222.800 C 93.637 223.790,92.913 225.453,92.447 226.496 C 91.981 227.538,91.600 228.501,91.600 228.635 C 91.600 228.769,91.312 229.536,90.959 230.340 C 90.607 231.143,90.175 232.160,90.000 232.600 C 89.825 233.040,89.411 234.030,89.081 234.800 C 88.750 235.570,87.817 237.820,87.006 239.800 C 86.195 241.780,85.296 243.940,85.007 244.600 C 84.719 245.260,83.902 247.240,83.192 249.000 C 80.021 256.866,80.421 256.907,77.398 248.400 C 76.812 246.750,76.003 244.500,75.600 243.400 C 75.197 242.300,74.387 240.050,73.800 238.400 C 72.309 234.211,71.181 231.141,70.788 230.200 C 70.411 229.300,68.265 223.194,67.307 220.300 C 66.565 218.058,66.237 217.951,65.461 219.700 M226.000 218.982 C 218.672 220.861,214.663 225.524,214.635 232.200 C 214.614 237.114,215.496 238.986,219.441 242.405 C 220.678 243.477,226.027 246.400,226.751 246.400 C 227.803 246.400,234.189 249.841,235.572 251.153 C 241.632 256.903,237.484 266.578,228.959 266.578 C 224.016 266.578,221.343 264.228,219.958 258.665 C 219.509 256.860,219.407 256.747,218.438 256.984 C 217.867 257.124,216.950 257.328,216.400 257.438 C 211.909 258.336,211.690 258.771,213.462 263.286 C 219.946 279.814,244.710 275.728,245.495 258.000 C 245.762 251.965,244.103 248.175,239.758 244.900 C 238.131 243.673,232.642 240.800,231.926 240.800 C 229.487 240.800,223.167 236.445,222.170 234.078 C 219.240 227.121,231.270 222.436,236.554 228.476 L 238.346 230.524 241.180 228.812 L 244.015 227.099 243.269 225.922 C 239.610 220.142,232.545 217.303,226.000 218.982 M112.186 220.095 C 112.080 220.373,112.039 232.300,112.096 246.600 L 112.200 272.600 126.600 272.600 L 141.000 272.600 141.116 269.100 L 141.231 265.600 130.616 265.600 L 120.000 265.600 120.000 256.400 L 120.000 247.200 130.216 247.200 L 140.431 247.200 140.316 243.700 L 140.200 240.200 130.100 240.093 L 120.000 239.986 120.000 233.393 L 120.000 226.800 130.616 226.800 L 141.231 226.800 141.116 223.300 L 141.000 219.800 126.689 219.695 C 115.455 219.612,112.337 219.698,112.186 220.095 M154.400 246.200 L 154.400 272.800 162.100 272.800 C 173.529 272.799,177.390 271.818,180.950 268.012 C 187.703 260.792,186.434 250.204,178.239 245.402 C 176.040 244.113,176.070 244.585,178.000 241.695 C 178.880 240.377,179.600 239.017,179.600 238.673 C 179.600 238.329,179.780 237.936,180.000 237.800 C 180.730 237.349,180.442 232.356,179.517 229.424 C 178.545 226.344,174.461 221.563,172.400 221.091 C 171.850 220.965,170.320 220.585,169.000 220.245 C 167.367 219.826,164.651 219.624,160.500 219.614 L 154.400 219.600 154.400 246.200 M253.200 223.185 L 253.200 226.779 259.300 226.890 L 265.400 227.000 265.503 249.916 L 265.607 272.831 269.103 272.716 L 272.600 272.600 272.703 249.700 L 272.807 226.800 279.019 226.800 L 285.231 226.800 285.116 223.300 L 285.000 219.800 269.100 219.695 L 253.200 219.591 253.200 223.185 M337.600 223.185 L 337.600 226.779 343.700 226.890 L 349.800 227.000 349.903 249.916 L 350.007 272.831 353.503 272.716 L 357.000 272.600 357.103 249.710 L 357.207 226.821 363.303 226.710 L 369.400 226.600 369.400 223.200 L 369.400 219.800 353.500 219.695 L 337.600 219.591 337.600 223.185 M169.689 227.750 C 172.435 229.275,173.200 230.741,173.200 234.479 C 173.200 240.132,171.075 242.250,164.971 242.681 L 161.600 242.919 161.600 234.859 L 161.600 226.800 164.789 226.800 C 167.400 226.800,168.289 226.972,169.689 227.750 M312.661 235.900 C 313.002 236.725,313.713 238.350,314.241 239.512 C 314.768 240.673,315.200 241.703,315.200 241.801 C 315.200 241.973,316.078 243.953,318.446 249.118 C 319.081 250.503,319.600 251.808,319.600 252.018 C 319.600 252.248,316.343 252.400,311.400 252.400 C 301.879 252.400,302.482 252.853,304.942 247.554 C 309.148 238.491,309.646 237.380,310.438 235.300 C 310.955 233.941,311.964 234.213,312.661 235.900 M171.614 249.436 C 179.198 251.564,180.282 261.155,173.325 264.579 C 171.448 265.503,170.790 265.600,166.425 265.600 L 161.600 265.600 161.600 257.200 L 161.600 248.800 165.474 248.800 C 167.797 248.800,170.254 249.054,171.614 249.436 M191.476 252.658 C 191.324 252.809,191.200 254.253,191.200 255.867 L 191.200 258.800 198.617 258.800 L 206.034 258.800 205.917 255.700 L 205.800 252.600 198.776 252.491 C 194.912 252.431,191.627 252.506,191.476 252.658 " stroke="none" fill="#f9f9fa" fill-rule="evenodd"></path><path id="path1" d="M194.503 102.034 C 194.889 102.259,195.568 103.153,196.011 104.021 C 196.454 104.890,196.914 105.600,197.033 105.600 C 197.152 105.600,196.760 104.700,196.161 103.600 C 195.548 102.473,194.795 101.605,194.436 101.612 C 193.896 101.622,193.906 101.686,194.503 102.034 M233.960 103.800 C 234.634 105.105,235.188 105.828,235.185 105.400 C 235.183 105.180,234.814 104.550,234.364 104.000 C 233.821 103.336,233.685 103.269,233.960 103.800 M153.000 106.800 C 152.659 107.460,152.469 108.000,152.579 108.000 C 152.689 108.000,153.059 107.460,153.400 106.800 C 153.741 106.140,153.931 105.600,153.821 105.600 C 153.711 105.600,153.341 106.140,153.000 106.800 M200.600 112.000 C 200.941 112.660,201.311 113.200,201.421 113.200 C 201.531 113.200,201.341 112.660,201.000 112.000 C 200.659 111.340,200.289 110.800,200.179 110.800 C 200.069 110.800,200.259 111.340,200.600 112.000 M164.200 114.800 C 164.541 115.460,164.911 116.000,165.021 116.000 C 165.131 116.000,164.941 115.460,164.600 114.800 C 164.259 114.140,163.889 113.600,163.779 113.600 C 163.669 113.600,163.859 114.140,164.200 114.800 M202.200 114.800 C 202.541 115.460,202.911 116.000,203.021 116.000 C 203.131 116.000,202.941 115.460,202.600 114.800 C 202.259 114.140,201.889 113.600,201.779 113.600 C 201.669 113.600,201.859 114.140,202.200 114.800 M145.353 120.100 C 143.976 122.436,143.886 122.635,144.587 121.800 C 145.400 120.832,146.100 119.600,145.838 119.600 C 145.733 119.600,145.515 119.825,145.353 120.100 M156.111 120.100 C 155.899 120.375,155.598 120.870,155.444 121.200 C 155.289 121.530,155.465 121.393,155.834 120.895 C 156.467 120.040,156.536 120.029,157.074 120.695 C 157.591 121.334,157.603 121.316,157.208 120.500 C 156.702 119.456,156.630 119.430,156.111 120.100 M220.953 120.900 C 219.576 123.236,219.486 123.435,220.187 122.600 C 221.000 121.632,221.700 120.400,221.438 120.400 C 221.333 120.400,221.115 120.625,220.953 120.900 M196.200 122.800 C 196.541 123.460,196.911 124.000,197.021 124.000 C 197.131 124.000,196.941 123.460,196.600 122.800 C 196.259 122.140,195.889 121.600,195.779 121.600 C 195.669 121.600,195.859 122.140,196.200 122.800 M235.400 124.800 C 235.741 125.460,236.111 126.000,236.221 126.000 C 236.331 126.000,236.141 125.460,235.800 124.800 C 235.459 124.140,235.089 123.600,234.979 123.600 C 234.869 123.600,235.059 124.140,235.400 124.800 M159.800 125.600 C 160.141 126.260,160.511 126.800,160.621 126.800 C 160.731 126.800,160.541 126.260,160.200 125.600 C 159.859 124.940,159.489 124.400,159.379 124.400 C 159.269 124.400,159.459 124.940,159.800 125.600 M152.600 126.000 C 152.259 126.660,152.069 127.200,152.179 127.200 C 152.289 127.200,152.659 126.660,153.000 126.000 C 153.341 125.340,153.531 124.800,153.421 124.800 C 153.311 124.800,152.941 125.340,152.600 126.000 M217.814 126.235 C 217.441 126.804,217.205 127.338,217.289 127.422 C 217.373 127.507,217.758 127.041,218.144 126.388 C 219.006 124.928,218.748 124.809,217.814 126.235 M178.614 128.235 C 178.241 128.804,178.005 129.338,178.089 129.422 C 178.173 129.507,178.558 129.041,178.944 128.388 C 179.806 126.928,179.548 126.809,178.614 128.235 M189.000 128.800 C 188.659 129.460,188.469 130.000,188.579 130.000 C 188.689 130.000,189.059 129.460,189.400 128.800 C 189.741 128.140,189.931 127.600,189.821 127.600 C 189.711 127.600,189.341 128.140,189.000 128.800 M173.000 130.000 C 173.341 130.660,173.711 131.200,173.821 131.200 C 173.931 131.200,173.741 130.660,173.400 130.000 C 173.059 129.340,172.689 128.800,172.579 128.800 C 172.469 128.800,172.659 129.340,173.000 130.000 M211.000 130.000 C 211.341 130.660,211.711 131.200,211.821 131.200 C 211.931 131.200,211.741 130.660,211.400 130.000 C 211.059 129.340,210.689 128.800,210.579 128.800 C 210.469 128.800,210.659 129.340,211.000 130.000 M162.015 129.400 C 162.017 129.620,162.386 130.250,162.836 130.800 C 163.379 131.464,163.515 131.531,163.240 131.000 C 162.566 129.695,162.012 128.972,162.015 129.400 M174.485 132.378 C 175.283 133.715,175.862 133.820,176.395 132.724 C 176.832 131.826,176.826 131.822,176.202 132.600 C 175.565 133.394,175.553 133.392,174.731 132.400 L 173.902 131.400 174.485 132.378 M137.800 133.200 C 137.459 133.860,137.269 134.400,137.379 134.400 C 137.489 134.400,137.859 133.860,138.200 133.200 C 138.541 132.540,138.731 132.000,138.621 132.000 C 138.511 132.000,138.141 132.540,137.800 133.200 M252.186 135.500 C 252.535 136.215,252.906 136.800,253.010 136.800 C 253.408 136.800,253.152 136.163,252.367 135.200 L 251.552 134.200 252.186 135.500 M241.800 136.000 C 242.141 136.660,242.511 137.200,242.621 137.200 C 242.731 137.200,242.541 136.660,242.200 136.000 C 241.859 135.340,241.489 134.800,241.379 134.800 C 241.269 134.800,241.459 135.340,241.800 136.000 M145.453 138.500 L 144.733 139.800 145.558 138.800 C 146.289 137.913,146.614 137.200,146.286 137.200 C 146.224 137.200,145.849 137.785,145.453 138.500 M205.400 138.800 C 205.741 139.460,206.111 140.000,206.221 140.000 C 206.331 140.000,206.141 139.460,205.800 138.800 C 205.459 138.140,205.089 137.600,204.979 137.600 C 204.869 137.600,205.059 138.140,205.400 138.800 M143.751 141.300 C 143.383 142.015,142.819 143.050,142.498 143.600 C 141.939 144.559,141.943 144.567,142.589 143.800 C 143.378 142.863,144.907 140.000,144.618 140.000 C 144.510 140.000,144.119 140.585,143.751 141.300 M181.800 141.200 C 181.459 141.860,181.269 142.400,181.379 142.400 C 181.489 142.400,181.859 141.860,182.200 141.200 C 182.541 140.540,182.731 140.000,182.621 140.000 C 182.511 140.000,182.141 140.540,181.800 141.200 M169.000 141.600 C 169.341 142.260,169.711 142.800,169.821 142.800 C 169.931 142.800,169.741 142.260,169.400 141.600 C 169.059 140.940,168.689 140.400,168.579 140.400 C 168.469 140.400,168.659 140.940,169.000 141.600 M180.200 144.000 C 179.859 144.660,179.669 145.200,179.779 145.200 C 179.889 145.200,180.259 144.660,180.600 144.000 C 180.941 143.340,181.131 142.800,181.021 142.800 C 180.911 142.800,180.541 143.340,180.200 144.000 M218.253 144.100 L 217.533 145.400 218.358 144.400 C 219.089 143.513,219.414 142.800,219.086 142.800 C 219.024 142.800,218.649 143.385,218.253 144.100 M257.960 145.400 C 258.634 146.705,259.188 147.428,259.185 147.000 C 259.183 146.780,258.814 146.150,258.364 145.600 C 257.821 144.936,257.685 144.869,257.960 145.400 M216.600 146.800 C 216.259 147.460,216.069 148.000,216.179 148.000 C 216.289 148.000,216.659 147.460,217.000 146.800 C 217.341 146.140,217.531 145.600,217.421 145.600 C 217.311 145.600,216.941 146.140,216.600 146.800 M248.415 147.400 C 248.417 147.620,248.786 148.250,249.236 148.800 C 249.779 149.464,249.915 149.531,249.640 149.000 C 248.966 147.695,248.412 146.972,248.415 147.400 M139.152 149.300 C 138.890 149.795,138.415 150.650,138.096 151.200 C 137.539 152.159,137.543 152.167,138.188 151.400 C 138.986 150.452,140.105 148.400,139.824 148.400 C 139.716 148.400,139.414 148.805,139.152 149.300 M165.351 151.300 C 164.983 152.015,164.419 153.050,164.098 153.600 C 163.539 154.559,163.543 154.567,164.189 153.800 C 164.978 152.863,166.507 150.000,166.218 150.000 C 166.110 150.000,165.719 150.585,165.351 151.300 M203.400 151.200 C 203.059 151.860,202.869 152.400,202.979 152.400 C 203.089 152.400,203.459 151.860,203.800 151.200 C 204.141 150.540,204.331 150.000,204.221 150.000 C 204.111 150.000,203.741 150.540,203.400 151.200 M250.600 151.200 C 250.941 151.860,251.311 152.400,251.421 152.400 C 251.531 152.400,251.341 151.860,251.000 151.200 C 250.659 150.540,250.289 150.000,250.179 150.000 C 250.069 150.000,250.259 150.540,250.600 151.200 M175.751 151.700 C 175.383 152.415,174.819 153.450,174.498 154.000 C 173.939 154.959,173.943 154.967,174.589 154.200 C 175.378 153.263,176.907 150.400,176.618 150.400 C 176.510 150.400,176.119 150.985,175.751 151.700 M201.800 154.000 C 201.459 154.660,201.269 155.200,201.379 155.200 C 201.489 155.200,201.859 154.660,202.200 154.000 C 202.541 153.340,202.731 152.800,202.621 152.800 C 202.511 152.800,202.141 153.340,201.800 154.000 M212.151 154.500 C 211.783 155.215,211.219 156.250,210.898 156.800 C 210.339 157.759,210.343 157.767,210.989 157.000 C 211.778 156.063,213.307 153.200,213.018 153.200 C 212.910 153.200,212.519 153.785,212.151 154.500 M263.800 155.600 C 264.141 156.260,264.511 156.800,264.621 156.800 C 264.731 156.800,264.541 156.260,264.200 155.600 C 263.859 154.940,263.489 154.400,263.379 154.400 C 263.269 154.400,263.459 154.940,263.800 155.600 M134.600 157.200 C 134.259 157.860,134.069 158.400,134.179 158.400 C 134.289 158.400,134.659 157.860,135.000 157.200 C 135.341 156.540,135.531 156.000,135.421 156.000 C 135.311 156.000,134.941 156.540,134.600 157.200 M265.400 158.400 C 265.741 159.060,266.111 159.600,266.221 159.600 C 266.331 159.600,266.141 159.060,265.800 158.400 C 265.459 157.740,265.089 157.200,264.979 157.200 C 264.869 157.200,265.059 157.740,265.400 158.400 M161.000 158.800 C 160.659 159.460,160.469 160.000,160.579 160.000 C 160.689 160.000,161.059 159.460,161.400 158.800 C 161.741 158.140,161.931 157.600,161.821 157.600 C 161.711 157.600,161.341 158.140,161.000 158.800 M254.415 157.800 C 254.417 158.020,254.786 158.650,255.236 159.200 C 255.779 159.864,255.915 159.931,255.640 159.400 C 254.966 158.095,254.412 157.372,254.415 157.800 M171.200 159.600 C 170.751 160.480,170.474 161.200,170.584 161.200 C 170.694 161.200,171.151 160.480,171.600 159.600 C 172.049 158.720,172.326 158.000,172.216 158.000 C 172.106 158.000,171.649 158.720,171.200 159.600 M121.353 161.700 C 119.976 164.036,119.886 164.235,120.587 163.400 C 121.400 162.432,122.100 161.200,121.838 161.200 C 121.733 161.200,121.515 161.425,121.353 161.700 M168.653 164.100 L 167.933 165.400 168.758 164.400 C 169.489 163.513,169.814 162.800,169.486 162.800 C 169.424 162.800,169.049 163.385,168.653 164.100 M128.600 167.600 C 128.259 168.260,128.069 168.800,128.179 168.800 C 128.289 168.800,128.659 168.260,129.000 167.600 C 129.341 166.940,129.531 166.400,129.421 166.400 C 129.311 166.400,128.941 166.940,128.600 167.600 M166.600 167.600 C 166.259 168.260,166.069 168.800,166.179 168.800 C 166.289 168.800,166.659 168.260,167.000 167.600 C 167.341 166.940,167.531 166.400,167.421 166.400 C 167.311 166.400,166.941 166.940,166.600 167.600 M154.614 169.835 C 154.241 170.404,154.005 170.938,154.089 171.022 C 154.173 171.107,154.558 170.641,154.944 169.988 C 155.806 168.528,155.548 168.409,154.614 169.835 M165.010 170.380 C 164.675 171.029,164.400 171.659,164.400 171.780 C 164.400 171.901,170.565 171.957,178.100 171.906 L 191.800 171.811 178.292 171.700 L 164.785 171.589 165.403 170.395 C 165.743 169.738,165.931 169.200,165.821 169.200 C 165.711 169.200,165.346 169.731,165.010 170.380 M202.814 170.774 C 202.586 171.199,202.400 171.649,202.400 171.774 C 202.400 171.898,215.945 171.956,232.500 171.903 L 262.600 171.805 232.687 171.700 C 202.946 171.596,202.777 171.590,203.201 170.797 C 203.436 170.359,203.538 170.000,203.428 170.000 C 203.318 170.000,203.042 170.348,202.814 170.774 M115.400 172.000 C 115.059 172.660,114.869 173.200,114.979 173.200 C 115.089 173.200,115.459 172.660,115.800 172.000 C 116.141 171.340,116.331 170.800,116.221 170.800 C 116.111 170.800,115.741 171.340,115.400 172.000 M126.745 171.705 C 126.913 171.874,133.070 171.963,140.425 171.905 L 153.800 171.799 140.120 171.600 C 132.595 171.490,126.577 171.537,126.745 171.705 M110.684 180.250 C 110.540 180.394,110.517 180.666,110.634 180.856 C 110.895 181.277,278.400 181.322,278.400 180.900 C 278.400 180.735,240.836 180.646,194.925 180.702 C 138.521 180.771,111.368 180.671,111.197 180.396 C 111.059 180.172,110.828 180.106,110.684 180.250 M311.771 216.629 C 312.117 216.974,312.400 217.454,312.400 217.695 C 312.400 217.936,312.505 218.029,312.632 217.901 C 312.956 217.577,312.064 216.000,311.557 216.000 C 311.329 216.000,311.426 216.283,311.771 216.629 M65.994 217.212 C 65.492 217.530,65.508 217.589,66.100 217.594 C 66.485 217.597,66.800 217.810,66.800 218.067 C 66.800 218.323,66.906 218.427,67.037 218.297 C 67.535 217.798,66.602 216.828,65.994 217.212 M225.800 218.419 C 225.242 218.671,225.485 218.707,226.600 218.538 C 227.480 218.404,228.275 218.228,228.367 218.147 C 228.710 217.844,226.568 218.071,225.800 218.419 M231.233 218.143 C 231.325 218.222,232.120 218.397,233.000 218.532 C 234.090 218.699,234.409 218.655,234.000 218.395 C 233.453 218.046,230.845 217.809,231.233 218.143 M29.200 219.100 C 29.199 219.265,31.162 219.400,33.560 219.400 C 35.959 219.400,37.839 219.265,37.737 219.100 C 37.636 218.935,35.673 218.800,33.376 218.800 C 31.079 218.800,29.200 218.935,29.200 219.100 M95.100 219.232 C 94.715 219.456,94.400 219.839,94.400 220.082 C 94.400 220.325,94.737 220.219,95.149 219.846 C 96.514 218.611,103.430 219.080,103.305 220.400 C 103.221 221.282,103.261 221.314,103.639 220.676 C 104.554 219.127,103.863 218.799,99.713 218.812 C 97.561 218.819,95.485 219.008,95.100 219.232 M112.262 219.100 C 112.159 219.265,118.470 219.350,126.285 219.290 C 142.842 219.162,141.570 218.810,141.681 223.549 L 141.763 227.000 141.898 223.704 C 142.117 218.339,143.534 218.800,126.810 218.800 C 118.910 218.800,112.364 218.935,112.262 219.100 M154.100 219.065 C 153.251 219.407,153.382 273.031,154.233 273.357 C 155.053 273.672,168.636 273.583,170.184 273.253 C 170.835 273.114,167.505 273.000,162.784 273.000 L 154.200 273.000 154.200 246.200 L 154.200 219.400 160.800 219.413 C 164.430 219.420,166.860 219.307,166.200 219.160 C 164.792 218.849,154.831 218.770,154.100 219.065 M252.833 219.360 C 252.535 219.719,252.409 221.195,252.484 223.460 L 252.600 227.000 258.400 227.016 L 264.200 227.032 258.485 226.905 L 252.770 226.778 252.885 223.089 L 253.000 219.400 268.753 219.295 C 287.036 219.174,285.570 218.805,285.681 223.549 L 285.763 227.000 285.898 223.704 C 286.118 218.314,287.770 218.800,269.235 218.800 C 256.057 218.800,253.217 218.897,252.833 219.360 M337.233 219.360 C 336.935 219.719,336.809 221.195,336.884 223.460 L 337.000 227.000 342.800 227.016 L 348.600 227.032 342.885 226.905 L 337.170 226.778 337.285 223.089 L 337.400 219.400 353.153 219.295 C 364.449 219.220,369.061 219.319,369.453 219.644 C 369.792 219.925,370.000 219.944,370.000 219.692 C 370.000 218.587,338.142 218.265,337.233 219.360 M308.475 221.819 C 307.270 224.300,307.405 224.647,308.646 222.261 C 309.201 221.194,309.587 220.253,309.503 220.170 C 309.419 220.086,308.957 220.828,308.475 221.819 M177.960 225.400 C 178.634 226.705,179.188 227.428,179.185 227.000 C 179.183 226.780,178.814 226.150,178.364 225.600 C 177.821 224.936,177.685 224.869,177.960 225.400 M233.800 226.654 C 234.020 226.848,234.829 227.545,235.599 228.203 L 236.997 229.400 235.999 228.263 C 235.449 227.638,234.640 226.941,234.200 226.714 C 233.760 226.488,233.580 226.461,233.800 226.654 M363.800 226.784 L 357.800 227.000 357.697 249.563 C 357.578 275.569,358.012 273.274,353.239 273.115 L 349.800 273.000 349.595 250.000 L 349.390 227.000 349.295 249.820 C 349.186 276.039,348.738 273.600,353.666 273.600 C 358.396 273.600,358.000 275.790,358.000 249.626 L 358.000 227.200 363.776 227.200 C 367.196 227.200,369.654 227.037,369.800 226.800 C 369.936 226.580,369.992 226.438,369.924 226.484 C 369.856 226.530,367.100 226.665,363.800 226.784 M120.176 227.318 C 120.067 227.602,120.028 230.527,120.089 233.818 L 120.200 239.800 130.527 239.907 L 140.855 240.014 140.727 243.808 C 140.657 245.894,140.742 247.601,140.914 247.601 C 141.087 247.600,141.177 245.845,141.114 243.700 L 141.000 239.800 130.700 239.693 L 120.400 239.586 120.400 233.400 L 120.400 227.213 130.900 227.100 L 141.400 226.986 130.887 226.893 C 122.589 226.820,120.333 226.909,120.176 227.318 M163.300 227.087 C 163.905 227.178,164.895 227.178,165.500 227.087 C 166.105 226.995,165.610 226.920,164.400 226.920 C 163.190 226.920,162.695 226.995,163.300 227.087 M273.467 227.067 C 273.320 227.213,273.200 237.560,273.200 250.059 L 273.200 272.785 272.295 273.012 C 271.798 273.137,270.043 273.185,268.395 273.119 L 265.400 273.000 265.195 250.000 L 264.990 227.000 264.895 249.820 C 264.786 276.015,264.349 273.600,269.200 273.600 C 274.044 273.600,273.600 275.989,273.600 249.931 L 273.600 227.221 279.500 227.099 L 285.400 226.977 279.567 226.888 C 276.358 226.840,273.613 226.920,273.467 227.067 M224.129 228.100 C 223.684 228.595,223.176 229.270,223.001 229.600 C 222.663 230.237,222.755 230.150,224.376 228.300 C 224.906 227.695,225.249 227.200,225.139 227.200 C 225.029 227.200,224.575 227.605,224.129 228.100 M32.446 229.000 C 32.453 229.220,32.806 230.120,33.229 231.000 C 33.652 231.880,33.886 232.150,33.749 231.600 C 33.467 230.467,32.425 228.388,32.446 229.000 M60.844 230.044 C 60.598 230.751,60.466 231.400,60.552 231.485 C 60.638 231.571,60.909 231.062,61.156 230.356 C 61.402 229.649,61.534 229.000,61.448 228.915 C 61.362 228.829,61.091 229.338,60.844 230.044 M213.852 230.100 C 213.538 231.272,213.582 234.012,213.928 234.885 C 214.078 235.262,214.200 234.137,214.200 232.385 C 214.200 228.857,214.195 228.822,213.852 230.100 M237.362 230.300 C 238.267 231.368,238.412 231.388,239.424 230.578 C 240.164 229.985,240.157 229.977,239.267 230.410 C 238.503 230.781,238.176 230.731,237.467 230.132 L 236.600 229.400 237.362 230.300 M222.217 231.524 C 222.081 232.143,222.122 233.060,222.308 233.563 C 222.568 234.265,222.646 234.003,222.646 232.439 C 222.646 230.111,222.565 229.938,222.217 231.524 M180.593 234.400 C 180.593 237.409,180.634 237.604,180.953 236.100 C 181.167 235.091,181.167 233.709,180.953 232.700 C 180.634 231.196,180.593 231.391,180.593 234.400 M172.914 234.600 C 172.917 235.700,172.995 236.103,173.087 235.495 C 173.179 234.886,173.177 233.986,173.082 233.495 C 172.987 233.003,172.911 233.500,172.914 234.600 M301.072 237.819 C 300.132 239.789,300.264 240.124,301.247 238.262 C 301.693 237.416,301.987 236.654,301.901 236.567 C 301.814 236.481,301.441 237.044,301.072 237.819 M171.589 239.221 C 171.347 239.673,170.575 240.393,169.874 240.820 C 169.174 241.247,168.801 241.598,169.046 241.599 C 169.674 241.601,171.526 240.087,172.017 239.169 C 172.243 238.746,172.338 238.400,172.228 238.400 C 172.118 238.400,171.830 238.770,171.589 239.221 M215.200 238.460 C 215.200 238.587,215.740 239.369,216.400 240.200 C 217.060 241.031,217.593 241.550,217.584 241.355 C 217.566 240.964,215.200 238.091,215.200 238.460 M178.399 241.700 C 177.810 242.504,177.713 242.784,178.145 242.433 C 178.801 241.900,179.793 240.400,179.489 240.400 C 179.413 240.400,178.922 240.985,178.399 241.700 M232.454 240.587 C 232.790 240.923,235.600 242.016,235.600 241.811 C 235.600 241.701,234.948 241.338,234.151 241.005 C 232.675 240.389,232.118 240.251,232.454 240.587 M163.107 242.290 C 163.826 242.379,164.906 242.377,165.507 242.286 C 166.108 242.195,165.520 242.122,164.200 242.124 C 162.880 242.126,162.388 242.201,163.107 242.290 M219.400 243.200 C 220.231 243.860,221.013 244.400,221.140 244.400 C 221.509 244.400,218.636 242.034,218.245 242.016 C 218.050 242.007,218.569 242.540,219.400 243.200 M84.465 244.217 C 83.795 245.688,83.923 246.002,84.647 244.665 C 84.986 244.040,85.188 243.454,85.096 243.363 C 85.005 243.271,84.721 243.656,84.465 244.217 M243.199 247.900 C 243.722 248.615,244.213 249.200,244.289 249.200 C 244.593 249.200,243.601 247.700,242.945 247.167 C 242.513 246.816,242.610 247.096,243.199 247.900 M120.189 256.600 L 120.200 265.400 130.600 265.410 L 141.000 265.420 130.708 265.303 L 120.415 265.187 120.296 256.493 L 120.177 247.800 120.189 256.600 M161.999 249.500 C 161.999 249.665,163.304 249.751,164.899 249.691 C 169.881 249.502,170.365 249.331,166.100 249.264 C 163.845 249.229,162.000 249.335,161.999 249.500 M303.450 251.415 C 303.086 252.363,303.685 252.427,311.812 252.300 L 319.400 252.181 311.513 252.091 C 304.690 252.012,303.656 251.919,303.855 251.400 C 303.982 251.070,303.996 250.800,303.886 250.800 C 303.776 250.800,303.579 251.077,303.450 251.415 M50.643 252.800 C 51.049 254.445,52.413 254.972,52.394 253.476 C 52.390 253.186,52.243 253.229,52.016 253.588 C 51.601 254.244,51.556 254.214,50.876 252.800 L 50.396 251.800 50.643 252.800 M195.100 252.298 C 197.135 252.371,200.465 252.371,202.500 252.298 C 204.535 252.225,202.870 252.166,198.800 252.166 C 194.730 252.166,193.065 252.225,195.100 252.298 M190.667 252.667 C 190.193 253.141,190.374 258.614,190.880 259.120 C 191.219 259.459,193.555 259.600,198.837 259.600 C 207.463 259.600,206.839 259.943,206.725 255.267 L 206.651 252.200 206.425 255.600 L 206.200 259.000 198.710 259.109 L 191.220 259.218 190.973 258.235 C 190.837 257.694,190.788 256.160,190.863 254.825 C 190.938 253.491,190.985 252.399,190.967 252.399 C 190.948 252.400,190.813 252.520,190.667 252.667 M293.072 255.019 C 292.132 256.989,292.264 257.324,293.247 255.462 C 293.693 254.616,293.987 253.854,293.901 253.767 C 293.814 253.681,293.441 254.244,293.072 255.019 M177.320 257.200 C 177.320 258.410,177.395 258.905,177.487 258.300 C 177.578 257.695,177.578 256.705,177.487 256.100 C 177.395 255.495,177.320 255.990,177.320 257.200 M237.714 257.400 C 237.717 258.500,237.795 258.903,237.887 258.295 C 237.979 257.686,237.977 256.786,237.882 256.295 C 237.787 255.803,237.711 256.300,237.714 257.400 M246.101 257.000 C 246.105 257.880,246.187 258.193,246.283 257.695 C 246.379 257.198,246.375 256.478,246.275 256.095 C 246.175 255.713,246.096 256.120,246.101 257.000 M185.709 257.600 C 185.709 258.590,185.787 258.995,185.882 258.500 C 185.978 258.005,185.978 257.195,185.882 256.700 C 185.787 256.205,185.709 256.610,185.709 257.600 M86.865 259.817 C 86.195 261.288,86.323 261.602,87.047 260.265 C 87.386 259.640,87.588 259.054,87.496 258.963 C 87.405 258.871,87.121 259.256,86.865 259.817 M211.668 259.400 C 211.662 259.840,211.811 260.560,212.000 261.000 C 212.438 262.019,212.438 260.968,212.000 259.600 C 211.743 258.796,211.677 258.757,211.668 259.400 M290.672 260.219 C 289.732 262.189,289.864 262.524,290.847 260.662 C 291.293 259.816,291.587 259.054,291.501 258.967 C 291.414 258.881,291.041 259.444,290.672 260.219 M245.646 260.467 C 245.621 260.834,245.496 261.464,245.370 261.867 C 245.152 262.562,245.163 262.563,245.597 261.887 C 245.848 261.496,245.973 260.866,245.873 260.487 C 245.711 259.868,245.688 259.866,245.646 260.467 M299.680 260.480 C 299.416 260.744,299.200 261.138,299.200 261.356 C 299.200 261.575,299.425 261.450,299.700 261.079 C 300.145 260.480,301.457 260.394,311.600 260.296 L 323.000 260.187 311.580 260.094 C 303.124 260.024,300.035 260.125,299.680 260.480 M236.367 262.268 C 236.055 262.855,235.098 263.845,234.240 264.468 C 233.382 265.090,232.814 265.600,232.978 265.600 C 233.965 265.600,237.610 261.876,237.111 261.378 C 237.014 261.281,236.679 261.681,236.367 262.268 M221.560 262.200 C 222.234 263.505,222.788 264.228,222.785 263.800 C 222.783 263.580,222.414 262.950,221.964 262.400 C 221.421 261.736,221.285 261.669,221.560 262.200 M173.200 264.000 C 172.430 264.422,171.944 264.774,172.120 264.783 C 172.544 264.805,174.800 263.632,174.800 263.390 C 174.800 263.128,174.777 263.137,173.200 264.000 M163.900 265.493 C 164.835 265.577,166.365 265.577,167.300 265.493 C 168.235 265.409,167.470 265.340,165.600 265.340 C 163.730 265.340,162.965 265.409,163.900 265.493 M141.681 268.851 C 141.570 273.590,142.842 273.238,126.285 273.110 C 118.470 273.050,112.159 273.135,112.262 273.300 C 112.364 273.465,118.910 273.600,126.810 273.600 C 143.534 273.600,142.117 274.061,141.898 268.696 L 141.763 265.400 141.681 268.851 M228.300 266.282 C 228.795 266.378,229.605 266.378,230.100 266.282 C 230.595 266.187,230.190 266.109,229.200 266.109 C 228.210 266.109,227.805 266.187,228.300 266.282 M240.985 269.300 L 239.000 271.400 241.100 269.415 C 242.255 268.323,243.200 267.378,243.200 267.315 C 243.200 267.017,242.829 267.349,240.985 269.300 M219.200 271.600 C 220.190 272.258,221.170 272.797,221.378 272.798 C 221.586 272.799,220.905 272.260,219.864 271.600 C 217.406 270.041,216.855 270.041,219.200 271.600 M327.201 270.881 C 327.197 271.731,328.249 273.247,328.969 273.427 C 331.255 273.999,336.988 273.417,337.110 272.600 C 337.219 271.869,337.192 271.860,336.795 272.500 C 336.431 273.087,335.748 273.200,332.574 273.200 L 328.788 273.200 327.996 271.900 C 327.560 271.185,327.202 270.727,327.201 270.881 M237.200 272.000 C 236.430 272.422,235.944 272.774,236.120 272.783 C 236.544 272.805,238.800 271.632,238.800 271.390 C 238.800 271.128,238.777 271.137,237.200 272.000 M294.074 272.198 C 293.471 273.521,285.813 273.789,285.476 272.500 C 285.338 271.973,285.281 272.023,285.246 272.700 C 285.170 274.186,293.264 274.085,294.245 272.588 C 294.610 272.031,294.823 271.490,294.719 271.386 C 294.615 271.282,294.325 271.647,294.074 272.198 M229.000 274.000 L 226.200 274.259 228.800 274.301 C 230.230 274.325,231.760 274.189,232.200 274.000 C 233.075 273.624,233.070 273.624,229.000 274.000 M80.400 275.176 C 80.400 275.465,80.140 275.586,79.800 275.455 C 79.161 275.210,78.958 275.803,79.555 276.172 C 79.990 276.441,81.015 275.281,80.657 274.924 C 80.516 274.782,80.400 274.896,80.400 275.176 M50.800 275.686 C 50.800 275.859,51.160 276.000,51.600 276.000 C 52.040 276.000,52.400 275.859,52.400 275.686 C 52.400 275.513,52.040 275.371,51.600 275.371 C 51.160 275.371,50.800 275.513,50.800 275.686 " stroke="none" fill="#8f88ba" fill-rule="evenodd"></path><path id="path2" d="M0.000 200.000 L 0.000 400.000 200.000 400.000 L 400.000 400.000 400.000 200.000 L 400.000 0.000 200.000 0.000 L 0.000 0.000 0.000 200.000 M157.717 102.900 C 158.082 103.615,158.806 104.920,159.325 105.800 C 159.844 106.680,160.735 108.237,161.304 109.260 C 161.874 110.283,162.773 111.813,163.303 112.660 C 163.832 113.507,164.812 115.190,165.481 116.400 C 166.150 117.610,167.375 119.770,168.204 121.200 C 169.033 122.630,169.915 124.160,170.164 124.600 C 172.419 128.580,175.300 133.200,175.527 133.200 C 175.834 133.200,176.165 132.708,177.678 130.000 C 178.231 129.010,179.520 126.790,180.542 125.067 C 181.564 123.344,182.400 121.882,182.400 121.818 C 182.400 121.754,183.390 120.052,184.600 118.036 C 185.810 116.019,186.800 114.282,186.800 114.176 C 186.800 114.071,187.260 113.256,187.821 112.366 C 188.806 110.807,189.438 109.721,191.238 106.500 C 194.364 100.906,194.620 100.762,196.208 103.700 C 197.652 106.373,198.138 107.225,201.334 112.687 C 202.778 115.154,204.396 117.944,204.930 118.887 C 206.381 121.447,208.773 125.591,209.844 127.400 C 210.365 128.280,211.363 130.044,212.062 131.320 C 213.458 133.868,213.636 133.861,215.099 131.200 C 216.508 128.637,217.703 126.538,221.705 119.600 C 222.150 118.830,222.962 117.390,223.510 116.400 C 224.058 115.410,224.644 114.420,224.811 114.200 C 225.104 113.814,225.790 112.620,227.914 108.800 C 228.464 107.810,229.210 106.550,229.572 106.000 C 229.933 105.450,230.457 104.550,230.737 104.000 C 232.250 101.021,233.094 101.219,235.004 105.000 C 235.746 106.469,236.906 108.526,239.065 112.200 C 239.970 113.740,241.068 115.630,241.506 116.400 C 242.307 117.809,244.701 121.970,245.993 124.200 C 250.861 132.602,252.642 135.686,253.496 137.200 C 254.055 138.190,255.413 140.530,256.514 142.400 C 257.614 144.270,258.819 146.340,259.192 147.000 C 260.447 149.226,261.908 151.773,265.618 158.200 C 267.650 161.720,269.622 165.140,270.001 165.800 C 270.379 166.460,271.228 167.909,271.887 169.021 C 272.547 170.133,273.540 171.843,274.094 172.821 C 274.648 173.799,275.738 175.715,276.517 177.079 C 277.296 178.442,278.050 179.927,278.193 180.379 L 278.454 181.200 194.694 181.200 C 148.625 181.200,110.826 181.093,110.695 180.962 C 110.445 180.711,110.686 180.244,114.400 173.800 C 115.668 171.600,117.064 169.170,117.504 168.400 C 118.257 167.079,120.457 163.255,121.991 160.600 C 122.373 159.940,123.521 157.990,124.542 156.267 C 125.564 154.544,126.400 153.065,126.400 152.981 C 126.400 152.897,127.390 151.195,128.600 149.200 C 129.810 147.205,130.800 145.495,130.800 145.401 C 130.800 145.308,131.790 143.581,133.000 141.564 C 134.210 139.548,135.200 137.846,135.200 137.782 C 135.200 137.718,136.036 136.256,137.058 134.533 C 138.079 132.810,139.222 130.860,139.597 130.200 C 143.584 123.181,146.345 118.378,147.887 115.779 C 148.547 114.667,149.540 112.957,150.094 111.979 C 150.648 111.001,151.776 109.030,152.600 107.600 C 153.424 106.170,154.456 104.370,154.893 103.600 C 155.330 102.830,155.769 102.065,155.868 101.900 C 156.269 101.230,157.090 101.674,157.717 102.900 M155.819 121.028 C 155.439 121.607,154.576 123.098,153.900 124.340 C 153.224 125.583,152.070 127.548,151.336 128.708 C 150.601 129.867,150.000 130.906,150.000 131.016 C 150.000 131.126,149.580 131.887,149.067 132.708 C 148.554 133.529,147.588 135.190,146.919 136.400 C 145.804 138.418,143.747 142.014,142.000 145.000 C 140.501 147.562,138.217 151.515,133.176 160.274 C 132.773 160.975,131.983 162.276,131.421 163.166 C 130.860 164.056,130.400 164.872,130.400 164.981 C 130.400 165.089,129.590 166.547,128.600 168.222 C 127.610 169.896,126.800 171.341,126.800 171.433 C 126.800 171.525,132.920 171.600,140.400 171.600 C 147.880 171.600,154.000 171.443,154.000 171.251 C 154.000 171.059,154.990 169.252,156.200 167.236 C 157.410 165.219,158.400 163.396,158.400 163.184 C 158.400 162.973,158.580 162.800,158.800 162.800 C 159.020 162.800,159.200 162.637,159.200 162.438 C 159.200 162.240,159.804 161.025,160.542 159.738 C 161.280 158.452,162.921 155.600,164.188 153.400 C 165.455 151.200,166.947 148.590,167.503 147.600 C 168.059 146.610,168.870 145.292,169.305 144.671 L 170.096 143.542 168.966 141.471 C 168.344 140.332,167.648 138.996,167.418 138.503 C 167.188 138.010,166.865 137.605,166.700 137.603 C 166.535 137.601,166.400 137.427,166.400 137.216 C 166.400 137.004,165.410 135.181,164.200 133.164 C 162.990 131.148,162.000 129.446,162.000 129.382 C 162.000 129.318,161.190 127.896,160.200 126.222 C 159.210 124.547,158.400 123.083,158.400 122.967 C 158.400 122.852,157.974 122.131,157.454 121.366 L 156.509 119.974 155.819 121.028 M194.073 120.487 C 193.813 120.747,193.600 121.083,193.600 121.233 C 193.600 121.382,192.139 124.001,190.353 127.053 C 188.567 130.104,186.756 133.211,186.328 133.957 C 185.900 134.704,183.100 139.564,180.106 144.757 C 174.143 155.100,170.729 161.040,169.507 163.200 C 169.071 163.970,168.582 164.780,168.419 165.000 C 168.257 165.220,167.363 166.795,166.434 168.500 L 164.744 171.600 178.281 171.600 L 191.818 171.600 192.609 170.101 C 193.044 169.277,194.047 167.522,194.837 166.201 C 195.628 164.881,196.727 162.990,197.281 162.000 C 200.840 155.632,203.068 151.781,204.852 148.910 C 205.703 147.540,206.400 146.308,206.400 146.172 C 206.400 146.035,206.784 145.384,207.254 144.724 L 208.108 143.525 207.316 142.062 C 206.880 141.258,205.478 138.800,204.200 136.600 C 202.922 134.400,201.455 131.846,200.939 130.924 C 199.833 128.948,194.758 120.242,194.633 120.107 C 194.586 120.055,194.334 120.226,194.073 120.487 M231.449 121.703 C 231.035 122.416,230.245 123.801,229.692 124.779 C 229.139 125.757,228.147 127.467,227.487 128.579 C 226.025 131.044,225.576 131.821,222.391 137.400 C 219.565 142.349,219.825 141.899,214.781 150.600 C 212.741 154.120,210.090 158.710,208.890 160.800 C 207.691 162.890,206.338 165.230,205.884 166.000 C 205.429 166.770,204.536 168.345,203.899 169.500 L 202.740 171.600 232.562 171.600 L 262.384 171.600 261.372 169.787 C 260.815 168.789,259.178 165.954,257.734 163.487 C 256.290 161.019,254.653 158.190,254.098 157.200 C 253.542 156.210,252.187 153.870,251.086 152.000 C 249.985 150.130,248.631 147.790,248.076 146.800 C 247.522 145.810,246.748 144.427,246.356 143.726 C 245.964 143.025,245.183 141.724,244.621 140.834 C 244.060 139.944,243.600 139.141,243.600 139.049 C 243.600 138.957,242.908 137.738,242.063 136.341 C 241.217 134.943,240.047 132.945,239.463 131.900 C 232.567 119.571,232.634 119.656,231.449 121.703 M312.659 217.500 C 312.999 218.325,313.889 220.300,314.638 221.889 C 315.387 223.477,316.000 224.860,316.000 224.961 C 316.000 225.062,316.520 226.282,317.156 227.672 C 318.246 230.055,319.148 232.049,321.147 236.500 C 321.616 237.545,322.384 239.255,322.853 240.300 C 324.852 244.751,325.754 246.745,326.844 249.128 C 327.480 250.518,328.000 251.715,328.000 251.788 C 328.000 251.861,328.729 253.513,329.619 255.460 C 330.510 257.407,331.395 259.360,331.586 259.800 C 332.121 261.030,334.000 265.214,334.820 267.000 C 337.966 273.854,338.039 273.602,332.913 273.594 C 327.741 273.586,328.591 274.566,323.804 263.094 L 322.675 260.388 311.297 260.494 L 299.919 260.600 299.059 262.220 C 298.587 263.112,297.681 265.042,297.046 266.510 C 296.412 267.978,295.422 270.129,294.846 271.289 L 293.800 273.400 289.447 273.514 L 285.094 273.628 285.334 272.431 C 285.466 271.772,286.192 269.921,286.949 268.317 C 288.581 264.859,290.867 259.935,292.391 256.600 C 292.994 255.280,294.250 252.580,295.183 250.600 C 297.689 245.279,299.020 242.415,299.924 240.400 C 300.369 239.410,301.668 236.620,302.812 234.200 C 306.339 226.739,307.600 224.004,307.600 223.813 C 307.600 223.217,311.354 216.000,311.664 216.000 C 311.871 216.000,312.319 216.675,312.659 217.500 M68.175 221.031 C 68.933 223.214,70.180 226.710,70.945 228.800 C 71.711 230.890,72.814 233.950,73.397 235.600 C 73.980 237.250,74.605 238.960,74.786 239.400 C 74.967 239.840,75.418 241.100,75.789 242.200 C 76.159 243.300,76.610 244.560,76.791 245.000 C 76.971 245.440,77.336 246.430,77.600 247.200 C 77.864 247.970,78.230 248.960,78.412 249.400 C 78.595 249.840,79.082 251.151,79.495 252.313 L 80.246 254.426 81.163 252.313 C 81.668 251.151,82.318 249.660,82.607 249.000 C 82.897 248.340,83.488 246.900,83.920 245.800 C 84.852 243.425,90.243 230.319,90.995 228.600 C 91.284 227.940,92.198 225.690,93.028 223.600 C 93.857 221.510,94.809 219.575,95.144 219.300 C 96.010 218.588,103.551 218.607,103.825 219.322 C 104.014 219.813,103.541 221.050,100.641 227.660 C 100.288 228.464,100.000 229.224,100.000 229.350 C 100.000 229.477,99.460 230.759,98.800 232.200 C 98.140 233.641,97.600 234.900,97.600 234.998 C 97.600 235.096,97.150 236.160,96.600 237.363 C 96.050 238.565,95.600 239.652,95.600 239.779 C 95.600 239.905,95.222 240.862,94.760 241.904 C 94.298 242.947,93.777 244.160,93.602 244.600 C 93.426 245.040,92.814 246.440,92.241 247.711 C 91.669 248.982,91.200 250.109,91.200 250.215 C 91.200 250.322,90.863 251.172,90.451 252.104 C 90.039 253.037,88.839 255.870,87.785 258.400 C 86.732 260.930,85.449 263.933,84.935 265.074 C 84.421 266.215,84.000 267.252,84.000 267.379 C 84.000 267.505,83.640 268.417,83.200 269.404 C 82.760 270.392,82.040 272.008,81.600 272.996 C 81.160 273.983,80.800 274.951,80.800 275.147 C 80.800 276.010,79.614 276.506,79.368 275.745 C 79.236 275.335,78.976 274.640,78.790 274.200 C 78.604 273.760,77.794 271.510,76.990 269.200 C 76.185 266.890,75.381 264.640,75.202 264.200 C 74.788 263.179,73.563 259.831,72.202 256.000 C 71.616 254.350,70.979 252.640,70.788 252.200 C 70.597 251.760,70.170 250.590,69.840 249.600 C 69.510 248.610,68.760 246.540,68.174 245.000 C 67.587 243.460,67.019 241.800,66.910 241.312 C 66.671 240.242,65.600 239.200,65.600 240.037 C 65.600 240.482,62.787 248.189,61.599 251.000 C 61.413 251.440,60.601 253.600,59.795 255.800 C 58.988 258.000,58.179 260.160,57.996 260.600 C 57.813 261.040,56.825 263.650,55.800 266.400 C 54.775 269.150,53.783 271.760,53.595 272.200 C 53.407 272.640,53.025 273.675,52.746 274.500 C 52.248 275.975,50.800 276.682,50.800 275.450 C 50.800 275.147,49.976 272.852,48.968 270.350 C 46.775 264.901,46.515 264.265,46.010 263.100 C 45.795 262.605,44.173 258.510,42.405 254.000 C 40.637 249.490,39.013 245.395,38.795 244.900 C 37.980 243.045,37.561 242.003,34.410 234.000 C 32.635 229.490,31.025 225.440,30.834 225.000 C 28.187 218.916,28.236 218.800,33.419 218.800 L 37.580 218.800 38.350 220.500 C 38.774 221.435,39.692 223.730,40.389 225.600 C 41.652 228.984,41.926 229.694,42.699 231.600 C 42.922 232.150,43.420 233.410,43.807 234.400 C 44.193 235.390,44.845 236.963,45.255 237.896 C 45.665 238.828,46.000 239.738,46.000 239.918 C 46.000 240.212,48.308 246.215,49.185 248.200 C 49.379 248.640,49.956 250.125,50.467 251.500 C 51.646 254.674,51.647 254.674,53.176 250.500 C 53.882 248.575,54.609 246.640,54.794 246.200 C 54.978 245.760,55.788 243.600,56.595 241.400 C 58.116 237.248,58.410 236.477,59.111 234.800 C 59.341 234.250,60.188 232.000,60.995 229.800 C 61.801 227.600,62.612 225.440,62.798 225.000 C 62.984 224.560,63.700 222.675,64.389 220.811 C 66.274 215.713,66.328 215.716,68.175 221.031 M235.373 218.848 C 238.797 220.044,242.538 223.067,244.019 225.835 C 244.742 227.187,244.362 227.694,241.222 229.559 L 238.366 231.256 236.027 228.828 C 233.521 226.226,233.125 226.090,228.826 226.349 C 223.438 226.673,220.573 232.512,224.082 236.020 C 225.201 237.140,228.885 239.071,232.108 240.229 C 245.027 244.868,249.920 255.734,243.808 266.214 C 237.627 276.813,219.616 276.866,214.191 266.300 C 211.344 260.755,211.022 258.193,213.100 257.615 C 219.074 255.956,220.393 255.986,220.406 257.780 C 220.467 266.055,231.956 269.143,236.431 262.087 C 240.086 256.323,237.050 251.265,227.600 247.375 C 218.943 243.811,215.820 241.086,214.173 235.659 C 210.921 224.945,223.737 214.782,235.373 218.848 M141.586 219.574 C 142.289 220.887,142.117 226.669,141.367 226.957 C 141.019 227.091,136.159 227.200,130.567 227.200 L 120.400 227.200 120.400 233.393 L 120.400 239.586 130.700 239.693 L 141.000 239.800 141.114 243.700 L 141.229 247.600 130.814 247.600 L 120.400 247.600 120.400 256.400 L 120.400 265.200 130.567 265.200 C 142.993 265.200,142.000 264.873,142.000 268.966 C 142.000 274.033,143.371 273.629,126.600 273.506 L 112.200 273.400 112.096 246.600 C 112.039 231.860,112.079 219.575,112.184 219.300 C 112.552 218.337,141.066 218.602,141.586 219.574 M166.754 219.231 C 168.209 219.469,170.269 219.917,171.332 220.227 C 179.987 222.754,183.983 235.174,178.401 242.198 C 176.917 244.066,176.917 244.186,178.391 244.796 C 189.719 249.488,187.290 269.209,175.000 272.336 C 170.510 273.478,156.361 274.174,154.233 273.357 C 153.382 273.031,153.251 219.407,154.100 219.065 C 155.049 218.682,164.115 218.801,166.754 219.231 M285.586 219.574 C 286.289 220.887,286.117 226.669,285.367 226.957 C 285.019 227.091,282.229 227.200,279.167 227.200 L 273.600 227.200 273.600 249.920 C 273.600 275.991,274.044 273.600,269.200 273.600 C 264.356 273.600,264.800 275.989,264.800 249.930 L 264.800 227.221 258.700 227.110 L 252.600 227.000 252.484 223.460 C 252.409 221.195,252.535 219.719,252.833 219.360 C 253.676 218.345,285.038 218.549,285.586 219.574 M369.516 219.140 C 369.892 219.378,370.000 220.490,369.916 223.233 L 369.800 227.000 363.900 227.111 L 358.000 227.221 358.000 249.637 C 358.000 275.789,358.396 273.600,353.666 273.600 C 348.745 273.600,349.200 276.014,349.200 249.930 L 349.200 227.221 343.100 227.110 L 337.000 227.000 336.884 223.460 C 336.809 221.195,336.935 219.719,337.233 219.360 C 337.759 218.726,368.532 218.515,369.516 219.140 M162.000 234.556 L 162.000 242.000 164.816 242.000 C 170.295 242.000,172.600 239.809,172.600 234.600 C 172.600 229.500,170.591 227.588,164.900 227.273 L 162.000 227.113 162.000 234.556 M310.364 237.100 C 309.894 238.145,309.147 239.810,308.706 240.800 C 308.264 241.790,307.316 243.860,306.599 245.400 C 305.882 246.940,304.974 248.920,304.580 249.800 C 304.187 250.680,303.795 251.535,303.709 251.700 C 303.623 251.865,307.070 252.000,311.370 252.000 L 319.186 252.000 318.477 250.700 C 318.087 249.985,317.249 248.140,316.615 246.600 C 315.980 245.060,314.982 242.720,314.397 241.400 C 313.811 240.080,312.987 238.146,312.566 237.101 C 311.613 234.741,311.427 234.741,310.364 237.100 M162.267 249.867 C 162.120 250.013,162.000 253.546,162.000 257.716 L 162.000 265.299 166.700 265.121 C 174.416 264.830,177.200 262.749,177.200 257.276 C 177.200 253.807,175.381 251.299,172.000 250.106 C 170.543 249.592,162.733 249.400,162.267 249.867 M206.167 252.243 C 206.820 252.493,207.112 257.522,206.557 258.967 C 206.243 259.787,191.689 259.929,190.880 259.120 C 190.073 258.313,190.250 252.927,191.100 252.432 C 191.849 251.996,205.090 251.829,206.167 252.243 " stroke="none" fill="#443c9c" fill-rule="evenodd"></path><path id="path3" d="M231.039 104.000 C 230.440 105.100,230.048 106.000,230.167 106.000 C 230.286 106.000,230.745 105.292,231.186 104.427 C 232.349 102.148,232.590 102.163,233.965 104.600 C 234.648 105.810,235.303 106.800,235.420 106.800 C 235.631 106.800,233.821 103.472,233.082 102.500 C 232.465 101.688,232.185 101.894,231.039 104.000 M153.400 106.800 C 153.059 107.460,152.869 108.000,152.979 108.000 C 153.089 108.000,153.459 107.460,153.800 106.800 C 154.141 106.140,154.331 105.600,154.221 105.600 C 154.111 105.600,153.741 106.140,153.400 106.800 M189.800 109.600 C 189.459 110.260,189.269 110.800,189.379 110.800 C 189.489 110.800,189.859 110.260,190.200 109.600 C 190.541 108.940,190.731 108.400,190.621 108.400 C 190.511 108.400,190.141 108.940,189.800 109.600 M226.200 112.400 C 225.859 113.060,225.669 113.600,225.779 113.600 C 225.889 113.600,226.259 113.060,226.600 112.400 C 226.941 111.740,227.131 111.200,227.021 111.200 C 226.911 111.200,226.541 111.740,226.200 112.400 M201.600 114.400 C 202.049 115.280,202.506 116.000,202.616 116.000 C 202.726 116.000,202.449 115.280,202.000 114.400 C 201.551 113.520,201.094 112.800,200.984 112.800 C 200.874 112.800,201.151 113.520,201.600 114.400 M149.000 114.400 C 148.659 115.060,148.469 115.600,148.579 115.600 C 148.689 115.600,149.059 115.060,149.400 114.400 C 149.741 113.740,149.931 113.200,149.821 113.200 C 149.711 113.200,149.341 113.740,149.000 114.400 M224.600 115.200 C 224.259 115.860,224.069 116.400,224.179 116.400 C 224.289 116.400,224.659 115.860,225.000 115.200 C 225.341 114.540,225.531 114.000,225.421 114.000 C 225.311 114.000,224.941 114.540,224.600 115.200 M165.200 117.200 C 165.649 118.080,166.106 118.800,166.216 118.800 C 166.326 118.800,166.049 118.080,165.600 117.200 C 165.151 116.320,164.694 115.600,164.584 115.600 C 164.474 115.600,164.751 116.320,165.200 117.200 M185.400 117.200 C 185.059 117.860,184.869 118.400,184.979 118.400 C 185.089 118.400,185.459 117.860,185.800 117.200 C 186.141 116.540,186.331 116.000,186.221 116.000 C 186.111 116.000,185.741 116.540,185.400 117.200 M222.899 118.100 C 222.336 118.806,221.144 121.200,221.356 121.200 C 221.452 121.200,221.984 120.390,222.538 119.400 C 223.535 117.616,223.668 117.136,222.899 118.100 M156.100 119.487 C 155.825 119.586,155.600 119.854,155.600 120.082 C 155.600 120.341,155.817 120.318,156.175 120.021 C 156.644 119.632,156.868 119.770,157.385 120.772 C 157.735 121.447,158.111 122.000,158.221 122.000 C 158.490 122.000,157.286 119.696,156.903 119.479 C 156.736 119.385,156.375 119.389,156.100 119.487 M193.912 119.901 C 193.214 120.702,192.286 122.400,192.546 122.400 C 192.642 122.400,193.117 121.730,193.600 120.910 C 194.436 119.493,194.507 119.458,195.040 120.186 C 195.348 120.608,195.600 120.761,195.600 120.525 C 195.600 119.572,194.541 119.181,193.912 119.901 M232.650 119.885 C 233.063 120.317,233.634 121.014,233.921 121.435 C 234.208 121.856,234.116 121.584,233.717 120.832 C 233.319 120.080,232.747 119.382,232.446 119.282 C 232.120 119.173,232.202 119.416,232.650 119.885 M154.708 121.700 C 153.833 123.049,153.048 124.656,153.487 124.200 C 154.048 123.617,155.698 120.800,155.479 120.800 C 155.376 120.800,155.029 121.205,154.708 121.700 M168.349 122.600 C 168.565 123.040,169.034 123.760,169.393 124.200 L 170.044 125.000 169.651 124.200 C 169.435 123.760,168.966 123.040,168.607 122.600 L 167.956 121.800 168.349 122.600 M159.000 123.600 C 159.341 124.260,159.711 124.800,159.821 124.800 C 159.931 124.800,159.741 124.260,159.400 123.600 C 159.059 122.940,158.689 122.400,158.579 122.400 C 158.469 122.400,158.659 122.940,159.000 123.600 M197.000 123.600 C 197.341 124.260,197.711 124.800,197.821 124.800 C 197.931 124.800,197.741 124.260,197.400 123.600 C 197.059 122.940,196.689 122.400,196.579 122.400 C 196.469 122.400,196.659 122.940,197.000 123.600 M143.000 124.800 C 142.659 125.460,142.469 126.000,142.579 126.000 C 142.689 126.000,143.059 125.460,143.400 124.800 C 143.741 124.140,143.931 123.600,143.821 123.600 C 143.711 123.600,143.341 124.140,143.000 124.800 M160.600 126.400 C 160.941 127.060,161.311 127.600,161.421 127.600 C 161.531 127.600,161.341 127.060,161.000 126.400 C 160.659 125.740,160.289 125.200,160.179 125.200 C 160.069 125.200,160.259 125.740,160.600 126.400 M170.008 125.301 C 170.003 125.467,170.537 126.457,171.192 127.501 C 171.848 128.546,172.388 129.264,172.392 129.099 C 172.397 128.933,171.863 127.943,171.208 126.899 C 170.552 125.854,170.012 125.136,170.008 125.301 M209.000 127.200 C 209.341 127.860,209.711 128.400,209.821 128.400 C 209.931 128.400,209.741 127.860,209.400 127.200 C 209.059 126.540,208.689 126.000,208.579 126.000 C 208.469 126.000,208.659 126.540,209.000 127.200 M247.000 127.200 C 247.341 127.860,247.711 128.400,247.821 128.400 C 247.931 128.400,247.741 127.860,247.400 127.200 C 247.059 126.540,246.689 126.000,246.579 126.000 C 246.469 126.000,246.659 126.540,247.000 127.200 M179.351 127.700 C 178.983 128.415,178.419 129.450,178.098 130.000 C 177.539 130.959,177.543 130.967,178.189 130.200 C 178.978 129.263,180.507 126.400,180.218 126.400 C 180.110 126.400,179.719 126.985,179.351 127.700 M199.800 128.400 C 200.141 129.060,200.511 129.600,200.621 129.600 C 200.731 129.600,200.541 129.060,200.200 128.400 C 199.859 127.740,199.489 127.200,199.379 127.200 C 199.269 127.200,199.459 127.740,199.800 128.400 M226.600 128.800 C 226.259 129.460,226.069 130.000,226.179 130.000 C 226.289 130.000,226.659 129.460,227.000 128.800 C 227.341 128.140,227.531 127.600,227.421 127.600 C 227.311 127.600,226.941 128.140,226.600 128.800 M140.151 129.700 C 139.783 130.415,139.219 131.450,138.898 132.000 C 138.339 132.959,138.343 132.967,138.989 132.200 C 139.778 131.263,141.307 128.400,141.018 128.400 C 140.910 128.400,140.519 128.985,140.151 129.700 M215.757 130.500 C 214.253 133.443,213.525 134.185,212.934 133.378 C 212.640 132.976,212.400 132.839,212.400 133.075 C 212.400 134.380,213.555 134.404,214.517 133.120 C 215.615 131.654,216.932 129.200,216.621 129.200 C 216.511 129.200,216.122 129.785,215.757 130.500 M149.881 129.900 C 149.789 130.065,149.209 131.100,148.591 132.200 C 147.974 133.300,147.654 134.020,147.881 133.800 C 148.460 133.239,150.522 129.600,150.262 129.600 C 150.144 129.600,149.972 129.735,149.881 129.900 M187.028 131.461 C 186.456 132.484,186.052 133.385,186.129 133.463 C 186.207 133.540,186.761 132.703,187.360 131.602 C 187.960 130.501,188.364 129.600,188.259 129.600 C 188.154 129.600,187.600 130.437,187.028 131.461 M163.400 131.200 C 163.741 131.860,164.111 132.400,164.221 132.400 C 164.331 132.400,164.141 131.860,163.800 131.200 C 163.459 130.540,163.089 130.000,162.979 130.000 C 162.869 130.000,163.059 130.540,163.400 131.200 M176.446 132.804 C 175.952 133.682,175.633 134.400,175.735 134.400 C 176.006 134.400,177.659 131.526,177.487 131.354 C 177.408 131.274,176.939 131.927,176.446 132.804 M224.614 132.235 C 224.241 132.804,224.005 133.338,224.089 133.422 C 224.173 133.507,224.558 133.041,224.944 132.388 C 225.806 130.928,225.548 130.809,224.614 132.235 M174.200 132.800 C 174.541 133.460,174.911 134.000,175.021 134.000 C 175.131 134.000,174.941 133.460,174.600 132.800 C 174.259 132.140,173.889 131.600,173.779 131.600 C 173.669 131.600,173.859 132.140,174.200 132.800 M240.600 133.200 C 240.941 133.860,241.311 134.400,241.421 134.400 C 241.531 134.400,241.341 133.860,241.000 133.200 C 240.659 132.540,240.289 132.000,240.179 132.000 C 240.069 132.000,240.259 132.540,240.600 133.200 M165.000 134.000 C 165.341 134.660,165.711 135.200,165.821 135.200 C 165.931 135.200,165.741 134.660,165.400 134.000 C 165.059 133.340,164.689 132.800,164.579 132.800 C 164.469 132.800,164.659 133.340,165.000 134.000 M203.615 135.000 C 203.617 135.220,203.986 135.850,204.436 136.400 C 204.979 137.064,205.115 137.131,204.840 136.600 C 204.166 135.295,203.612 134.572,203.615 135.000 M242.816 137.100 C 244.105 139.395,245.410 141.358,245.141 140.600 C 244.848 139.770,241.922 134.800,241.727 134.800 C 241.615 134.800,242.105 135.835,242.816 137.100 M144.600 139.200 C 144.259 139.860,144.069 140.400,144.179 140.400 C 144.289 140.400,144.659 139.860,145.000 139.200 C 145.341 138.540,145.531 138.000,145.421 138.000 C 145.311 138.000,144.941 138.540,144.600 139.200 M206.349 139.800 C 206.565 140.240,207.034 140.960,207.393 141.400 L 208.044 142.200 207.651 141.400 C 207.435 140.960,206.966 140.240,206.607 139.800 L 205.956 139.000 206.349 139.800 M143.014 141.835 C 142.641 142.404,142.427 142.961,142.539 143.072 C 142.650 143.183,143.029 142.718,143.381 142.037 C 144.159 140.533,143.944 140.415,143.014 141.835 M218.614 142.635 C 218.241 143.204,218.005 143.738,218.089 143.822 C 218.173 143.907,218.558 143.441,218.944 142.788 C 219.806 141.328,219.548 141.209,218.614 142.635 M169.800 143.400 C 169.800 144.128,169.935 144.640,170.100 144.538 C 170.265 144.436,170.400 143.924,170.400 143.400 C 170.400 142.876,170.265 142.364,170.100 142.262 C 169.935 142.160,169.800 142.672,169.800 143.400 M246.600 143.600 C 246.941 144.260,247.311 144.800,247.421 144.800 C 247.531 144.800,247.341 144.260,247.000 143.600 C 246.659 142.940,246.289 142.400,246.179 142.400 C 246.069 142.400,246.259 142.940,246.600 143.600 M179.400 144.800 C 179.059 145.460,178.869 146.000,178.979 146.000 C 179.089 146.000,179.459 145.460,179.800 144.800 C 180.141 144.140,180.331 143.600,180.221 143.600 C 180.111 143.600,179.741 144.140,179.400 144.800 M257.400 145.200 C 257.741 145.860,258.111 146.400,258.221 146.400 C 258.331 146.400,258.141 145.860,257.800 145.200 C 257.459 144.540,257.089 144.000,256.979 144.000 C 256.869 144.000,257.059 144.540,257.400 145.200 M217.105 145.300 C 216.244 146.622,215.046 149.065,215.488 148.600 C 216.011 148.050,218.074 144.400,217.863 144.400 C 217.769 144.400,217.428 144.805,217.105 145.300 M168.600 146.400 C 168.259 147.060,168.069 147.600,168.179 147.600 C 168.289 147.600,168.659 147.060,169.000 146.400 C 169.341 145.740,169.531 145.200,169.421 145.200 C 169.311 145.200,168.941 145.740,168.600 146.400 M140.253 146.900 L 139.533 148.200 140.358 147.200 C 141.089 146.313,141.414 145.600,141.086 145.600 C 141.024 145.600,140.649 146.185,140.253 146.900 M177.905 147.300 C 177.044 148.622,175.846 151.065,176.288 150.600 C 176.811 150.050,178.874 146.400,178.663 146.400 C 178.569 146.400,178.228 146.805,177.905 147.300 M129.400 148.400 C 129.059 149.060,128.869 149.600,128.979 149.600 C 129.089 149.600,129.459 149.060,129.800 148.400 C 130.141 147.740,130.331 147.200,130.221 147.200 C 130.111 147.200,129.741 147.740,129.400 148.400 M205.000 149.200 C 204.659 149.860,204.469 150.400,204.579 150.400 C 204.689 150.400,205.059 149.860,205.400 149.200 C 205.741 148.540,205.931 148.000,205.821 148.000 C 205.711 148.000,205.341 148.540,205.000 149.200 M250.439 150.300 C 251.792 152.544,252.400 153.410,252.400 153.095 C 252.400 152.702,249.977 148.800,249.733 148.800 C 249.624 148.800,249.942 149.475,250.439 150.300 M214.305 150.100 C 213.444 151.422,212.246 153.865,212.688 153.400 C 213.211 152.850,215.274 149.200,215.063 149.200 C 214.969 149.200,214.628 149.605,214.305 150.100 M260.524 150.600 C 260.862 151.260,261.438 152.160,261.804 152.600 C 262.170 153.040,262.065 152.680,261.570 151.800 C 260.480 149.858,259.664 148.922,260.524 150.600 M165.800 151.200 C 165.459 151.860,165.269 152.400,165.379 152.400 C 165.489 152.400,165.859 151.860,166.200 151.200 C 166.541 150.540,166.731 150.000,166.621 150.000 C 166.511 150.000,166.141 150.540,165.800 151.200 M137.400 151.600 C 137.059 152.260,136.869 152.800,136.979 152.800 C 137.089 152.800,137.459 152.260,137.800 151.600 C 138.141 150.940,138.331 150.400,138.221 150.400 C 138.111 150.400,137.741 150.940,137.400 151.600 M202.200 154.000 C 201.859 154.660,201.669 155.200,201.779 155.200 C 201.889 155.200,202.259 154.660,202.600 154.000 C 202.941 153.340,203.131 152.800,203.021 152.800 C 202.911 152.800,202.541 153.340,202.200 154.000 M262.400 153.682 C 262.400 154.059,265.258 158.800,265.485 158.800 C 265.590 158.800,265.181 157.945,264.576 156.900 C 263.207 154.536,262.400 153.343,262.400 153.682 M162.953 156.100 C 161.576 158.436,161.486 158.635,162.187 157.800 C 163.000 156.832,163.700 155.600,163.438 155.600 C 163.333 155.600,163.115 155.825,162.953 156.100 M134.200 157.200 C 133.859 157.860,133.669 158.400,133.779 158.400 C 133.889 158.400,134.259 157.860,134.600 157.200 C 134.941 156.540,135.131 156.000,135.021 156.000 C 134.911 156.000,134.541 156.540,134.200 157.200 M199.353 158.900 C 197.976 161.236,197.886 161.435,198.587 160.600 C 199.400 159.632,200.100 158.400,199.838 158.400 C 199.733 158.400,199.515 158.625,199.353 158.900 M255.800 159.600 C 256.141 160.260,256.511 160.800,256.621 160.800 C 256.731 160.800,256.541 160.260,256.200 159.600 C 255.859 158.940,255.489 158.400,255.379 158.400 C 255.269 158.400,255.459 158.940,255.800 159.600 M207.000 162.800 C 206.659 163.460,206.469 164.000,206.579 164.000 C 206.689 164.000,207.059 163.460,207.400 162.800 C 207.741 162.140,207.931 161.600,207.821 161.600 C 207.711 161.600,207.341 162.140,207.000 162.800 M120.600 163.600 C 120.259 164.260,120.069 164.800,120.179 164.800 C 120.289 164.800,120.659 164.260,121.000 163.600 C 121.341 162.940,121.531 162.400,121.421 162.400 C 121.311 162.400,120.941 162.940,120.600 163.600 M130.614 163.435 C 130.241 164.004,130.005 164.538,130.089 164.622 C 130.173 164.707,130.558 164.241,130.944 163.588 C 131.806 162.128,131.548 162.009,130.614 163.435 M268.200 164.000 C 268.541 164.660,268.911 165.200,269.021 165.200 C 269.131 165.200,268.941 164.660,268.600 164.000 C 268.259 163.340,267.889 162.800,267.779 162.800 C 267.669 162.800,267.859 163.340,268.200 164.000 M196.214 164.235 C 195.841 164.804,195.605 165.338,195.689 165.422 C 195.773 165.507,196.158 165.041,196.544 164.388 C 197.406 162.928,197.148 162.809,196.214 164.235 M167.959 164.500 C 167.701 164.995,167.035 166.210,166.479 167.200 C 165.923 168.190,165.658 168.820,165.890 168.600 C 166.472 168.048,168.929 163.600,168.652 163.600 C 168.529 163.600,168.217 164.005,167.959 164.500 M157.000 166.400 C 156.659 167.060,156.469 167.600,156.579 167.600 C 156.689 167.600,157.059 167.060,157.400 166.400 C 157.741 165.740,157.931 165.200,157.821 165.200 C 157.711 165.200,157.341 165.740,157.000 166.400 M155.400 169.200 C 155.059 169.860,154.869 170.400,154.979 170.400 C 155.089 170.400,155.459 169.860,155.800 169.200 C 156.141 168.540,156.331 168.000,156.221 168.000 C 156.111 168.000,155.741 168.540,155.400 169.200 M127.000 169.600 C 126.659 170.260,126.469 170.800,126.579 170.800 C 126.689 170.800,127.059 170.260,127.400 169.600 C 127.741 168.940,127.931 168.400,127.821 168.400 C 127.711 168.400,127.341 168.940,127.000 169.600 M126.006 171.700 C 126.000 172.440,153.684 172.834,154.138 172.100 C 154.241 171.935,148.100 171.850,140.492 171.910 C 129.617 171.997,126.591 171.912,126.336 171.510 C 126.100 171.138,126.011 171.189,126.006 171.700 M202.103 171.600 C 202.282 172.255,262.209 172.751,262.858 172.103 C 263.024 171.936,249.547 171.848,232.908 171.907 C 208.828 171.993,202.583 171.911,202.298 171.507 C 202.028 171.125,201.980 171.148,202.103 171.600 M164.000 172.100 C 164.000 172.265,170.345 172.361,178.100 172.313 C 185.855 172.265,189.950 172.176,187.200 172.115 C 174.531 171.833,163.999 171.827,164.000 172.100 M274.187 174.375 C 274.521 175.021,274.976 175.661,275.198 175.799 C 275.420 175.936,275.223 175.407,274.761 174.624 C 273.748 172.907,273.335 172.728,274.187 174.375 M111.443 179.433 C 111.309 179.781,111.200 180.231,111.200 180.433 C 111.200 180.655,144.219 180.800,194.600 180.800 C 240.470 180.800,278.000 180.665,278.000 180.500 C 278.000 180.335,240.548 180.246,194.772 180.302 C 111.639 180.404,111.545 180.403,111.799 179.602 C 112.100 178.656,111.796 178.512,111.443 179.433 M310.955 217.412 C 310.590 217.969,310.364 218.498,310.453 218.587 C 310.542 218.676,310.918 218.220,311.289 217.574 C 312.114 216.136,311.869 216.017,310.955 217.412 M65.867 217.867 C 65.381 218.353,65.590 218.779,66.200 218.545 C 66.530 218.418,66.800 218.154,66.800 217.957 C 66.800 217.538,66.249 217.484,65.867 217.867 M224.000 219.218 C 223.562 219.515,223.724 219.552,224.600 219.356 C 226.071 219.027,226.390 218.798,225.367 218.806 C 224.945 218.809,224.330 218.995,224.000 219.218 M312.828 219.400 C 312.828 219.620,313.086 220.250,313.400 220.800 C 313.714 221.350,313.972 221.620,313.972 221.400 C 313.972 221.180,313.714 220.550,313.400 220.000 C 313.086 219.450,312.828 219.180,312.828 219.400 M29.228 219.900 C 29.351 221.211,29.820 221.520,30.262 220.582 C 30.668 219.721,30.631 219.600,29.962 219.600 C 29.543 219.600,29.213 219.735,29.228 219.900 M94.898 220.100 C 94.499 220.599,93.732 222.780,94.089 222.400 C 94.370 222.101,95.558 219.600,95.418 219.600 C 95.352 219.600,95.118 219.825,94.898 220.100 M154.189 246.200 C 154.189 260.940,154.239 266.912,154.300 259.471 C 154.361 252.030,154.361 239.970,154.300 232.671 C 154.239 225.372,154.189 231.460,154.189 246.200 M168.000 220.000 C 168.550 220.176,169.360 220.320,169.800 220.320 C 170.433 220.320,170.392 220.254,169.600 220.000 C 169.050 219.824,168.240 219.680,167.800 219.680 C 167.167 219.680,167.208 219.746,168.000 220.000 M337.344 223.200 C 337.344 225.290,337.412 226.145,337.494 225.100 C 337.576 224.055,337.576 222.345,337.494 221.300 C 337.412 220.255,337.344 221.110,337.344 223.200 M252.942 223.400 C 252.941 225.380,253.008 226.240,253.092 225.312 C 253.176 224.384,253.177 222.764,253.095 221.712 C 253.012 220.660,252.943 221.420,252.942 223.400 M238.200 220.657 C 240.237 222.464,240.987 222.991,240.202 222.063 C 239.766 221.548,239.047 220.941,238.604 220.714 C 238.162 220.487,237.980 220.462,238.200 220.657 M174.281 222.218 C 174.985 222.774,176.313 224.077,177.230 225.114 C 178.148 226.151,178.528 226.449,178.076 225.775 C 177.172 224.430,173.801 221.197,173.309 221.204 C 173.139 221.207,173.576 221.663,174.281 222.218 M217.955 223.100 C 216.681 224.508,215.856 225.600,216.066 225.600 C 216.157 225.600,216.908 224.790,217.735 223.800 C 219.387 221.824,219.535 221.353,217.955 223.100 M241.847 224.003 C 242.313 224.551,242.995 225.474,243.362 226.053 L 244.030 227.106 242.215 228.170 C 241.217 228.755,240.400 229.324,240.400 229.434 C 240.400 229.588,243.616 227.890,244.346 227.350 C 244.609 227.155,242.845 224.563,241.913 223.777 L 241.000 223.006 241.847 224.003 M233.600 226.447 C 234.150 226.666,235.148 227.329,235.818 227.922 C 236.487 228.515,236.359 228.325,235.533 227.500 C 234.707 226.675,233.709 226.011,233.315 226.025 C 232.798 226.044,232.876 226.160,233.600 226.447 M265.200 249.920 L 265.400 273.000 265.503 250.223 C 265.560 237.696,265.470 227.310,265.303 227.143 C 265.137 226.976,265.090 237.226,265.200 249.920 M272.706 249.780 C 272.648 262.419,272.732 272.628,272.893 272.467 C 273.278 272.082,273.489 226.800,273.106 226.800 C 272.945 226.800,272.765 237.141,272.706 249.780 M349.600 249.920 L 349.800 273.000 349.903 250.223 C 349.960 237.696,349.870 227.310,349.703 227.143 C 349.537 226.976,349.490 237.226,349.600 249.920 M40.446 227.400 C 40.453 227.620,40.806 228.520,41.229 229.400 C 41.652 230.280,41.886 230.550,41.749 230.000 C 41.467 228.867,40.425 226.788,40.446 227.400 M316.434 227.400 C 316.434 227.620,316.778 228.430,317.200 229.200 C 317.622 229.970,317.966 230.420,317.966 230.200 C 317.966 229.980,317.622 229.170,317.200 228.400 C 316.778 227.630,316.434 227.180,316.434 227.400 M90.867 229.580 C 90.633 230.251,90.527 230.800,90.631 230.800 C 90.901 230.800,91.656 228.722,91.457 228.524 C 91.367 228.433,91.101 228.908,90.867 229.580 M171.282 229.019 C 171.658 229.462,172.235 230.448,172.567 231.212 C 172.898 231.975,173.176 232.366,173.184 232.080 C 173.208 231.299,172.149 229.416,171.326 228.778 C 170.634 228.240,170.632 228.252,171.282 229.019 M214.272 229.804 C 214.127 230.682,214.030 232.030,214.055 232.800 C 214.084 233.678,214.229 233.230,214.444 231.600 C 214.824 228.715,214.687 227.289,214.272 229.804 M237.549 230.100 C 238.222 230.958,238.438 230.967,239.424 230.178 C 240.165 229.584,240.158 229.576,239.274 230.006 C 238.563 230.351,238.193 230.333,237.674 229.928 C 237.069 229.454,237.056 229.471,237.549 230.100 M33.628 230.892 C 33.582 231.365,34.886 234.448,35.058 234.275 C 35.145 234.188,34.866 233.325,34.437 232.358 C 34.008 231.391,33.644 230.731,33.628 230.892 M180.501 234.200 C 180.505 235.080,180.587 235.393,180.683 234.895 C 180.779 234.398,180.775 233.678,180.675 233.295 C 180.575 232.913,180.496 233.320,180.501 234.200 M214.406 235.233 C 214.409 235.765,214.589 236.470,214.806 236.800 C 215.082 237.222,215.123 236.985,214.942 236.000 C 214.625 234.275,214.398 233.949,214.406 235.233 M320.034 235.400 C 320.034 235.620,320.378 236.430,320.800 237.200 C 321.222 237.970,321.566 238.420,321.566 238.200 C 321.566 237.980,321.222 237.170,320.800 236.400 C 320.378 235.630,320.034 235.180,320.034 235.400 M172.458 238.190 C 172.185 238.944,171.417 240.019,170.751 240.580 C 170.084 241.141,169.714 241.600,169.928 241.600 C 170.477 241.600,172.675 239.023,173.001 237.996 C 173.457 236.559,172.987 236.727,172.458 238.190 M66.091 239.100 C 66.429 239.485,66.833 240.219,66.989 240.730 C 67.145 241.242,67.357 241.576,67.460 241.473 C 67.794 241.140,66.455 238.400,65.958 238.400 C 65.632 238.400,65.675 238.627,66.091 239.100 M227.600 239.000 C 228.150 239.314,228.780 239.572,229.000 239.572 C 229.220 239.572,228.950 239.314,228.400 239.000 C 227.850 238.686,227.220 238.428,227.000 238.428 C 226.780 238.428,227.050 238.686,227.600 239.000 M178.439 241.024 C 177.977 241.807,177.780 242.336,178.002 242.199 C 178.436 241.931,179.734 239.600,179.450 239.600 C 179.356 239.600,178.901 240.241,178.439 241.024 M140.311 242.499 C 140.512 247.014,140.671 247.462,140.736 243.700 C 140.771 241.665,140.665 240.000,140.500 239.999 C 140.335 239.999,140.250 241.124,140.311 242.499 M218.727 242.200 C 219.381 242.750,220.038 243.200,220.188 243.200 C 220.339 243.200,219.927 242.750,219.273 242.200 C 218.619 241.650,217.962 241.200,217.812 241.200 C 217.661 241.200,218.073 241.650,218.727 242.200 M167.800 242.000 L 166.600 242.305 167.676 242.353 C 168.268 242.379,168.864 242.220,169.000 242.000 C 169.136 241.780,169.192 241.621,169.124 241.647 C 169.056 241.673,168.460 241.832,167.800 242.000 M234.433 241.751 C 234.842 242.121,238.000 243.595,238.000 243.416 C 238.000 243.189,234.981 241.600,234.549 241.600 C 234.394 241.600,234.342 241.668,234.433 241.751 M161.600 242.497 C 161.600 242.664,162.725 242.779,164.100 242.754 C 166.802 242.703,166.540 242.512,163.500 242.317 C 162.455 242.249,161.600 242.331,161.600 242.497 M298.272 244.619 C 297.332 246.589,297.464 246.924,298.447 245.062 C 298.893 244.216,299.187 243.454,299.101 243.367 C 299.014 243.281,298.641 243.844,298.272 244.619 M238.400 243.725 C 238.400 243.824,239.061 244.409,239.868 245.025 C 240.676 245.641,241.211 245.941,241.056 245.691 C 240.740 245.179,238.400 243.447,238.400 243.725 M222.400 244.596 C 222.400 244.870,224.849 246.084,225.032 245.901 C 225.119 245.814,224.562 245.444,223.795 245.078 C 223.028 244.712,222.400 244.495,222.400 244.596 M227.944 247.209 C 228.903 247.644,229.803 247.992,229.944 247.983 C 230.449 247.950,227.387 246.433,226.800 246.426 C 226.470 246.421,226.985 246.774,227.944 247.209 M325.228 247.000 C 325.228 247.220,325.486 247.850,325.800 248.400 C 326.114 248.950,326.372 249.220,326.372 249.000 C 326.372 248.780,326.114 248.150,325.800 247.600 C 325.486 247.050,325.228 246.780,325.228 247.000 M124.900 247.499 C 127.705 247.568,132.295 247.568,135.100 247.499 C 137.905 247.430,135.610 247.374,130.000 247.374 C 124.390 247.374,122.095 247.430,124.900 247.499 M303.872 249.819 C 302.932 251.789,303.064 252.124,304.047 250.262 C 304.493 249.416,304.787 248.654,304.701 248.567 C 304.614 248.481,304.241 249.044,303.872 249.819 M167.633 248.949 C 167.725 249.031,168.700 249.201,169.800 249.328 C 171.149 249.484,171.474 249.449,170.800 249.220 C 169.801 248.880,167.318 248.668,167.633 248.949 M318.414 249.654 C 318.406 249.794,318.663 250.514,318.984 251.254 C 319.306 251.994,319.569 252.330,319.570 252.000 C 319.572 251.424,318.443 249.134,318.414 249.654 M205.930 255.590 L 206.060 258.782 198.730 258.904 L 191.400 259.026 198.800 259.013 L 206.200 259.000 206.316 255.700 C 206.380 253.885,206.290 252.400,206.116 252.399 C 205.942 252.399,205.859 253.835,205.930 255.590 M236.814 252.454 C 236.806 252.594,237.063 253.314,237.384 254.054 C 237.706 254.794,237.969 255.130,237.970 254.800 C 237.972 254.224,236.843 251.934,236.814 252.454 M42.867 254.420 C 43.101 255.092,43.367 255.567,43.457 255.476 C 43.656 255.278,42.901 253.200,42.631 253.200 C 42.527 253.200,42.633 253.749,42.867 254.420 M88.672 254.619 C 87.732 256.589,87.864 256.924,88.847 255.062 C 89.293 254.216,89.587 253.454,89.501 253.367 C 89.414 253.281,89.041 253.844,88.672 254.619 M50.929 254.586 C 51.005 254.814,51.307 255.000,51.600 255.000 C 51.893 255.000,52.195 254.814,52.271 254.586 C 52.347 254.358,52.045 254.171,51.600 254.171 C 51.155 254.171,50.853 254.358,50.929 254.586 M245.734 256.800 C 245.734 258.450,245.805 259.125,245.891 258.300 C 245.978 257.475,245.978 256.125,245.891 255.300 C 245.805 254.475,245.734 255.150,245.734 256.800 M185.334 257.600 C 185.334 259.250,185.405 259.925,185.491 259.100 C 185.578 258.275,185.578 256.925,185.491 256.100 C 185.405 255.275,185.334 255.950,185.334 257.600 M177.701 257.400 C 177.705 258.280,177.787 258.593,177.883 258.095 C 177.979 257.598,177.975 256.878,177.875 256.495 C 177.775 256.113,177.696 256.520,177.701 257.400 M238.101 257.400 C 238.105 258.280,238.187 258.593,238.283 258.095 C 238.379 257.598,238.375 256.878,238.275 256.495 C 238.175 256.113,238.096 256.520,238.101 257.400 M216.400 257.200 C 215.576 257.464,215.541 257.526,216.200 257.554 C 216.640 257.573,217.270 257.413,217.600 257.200 C 218.301 256.747,217.814 256.747,216.400 257.200 M219.656 257.200 C 219.656 257.530,219.811 258.160,220.000 258.600 C 220.217 259.104,220.344 259.178,220.344 258.800 C 220.344 258.470,220.189 257.840,220.000 257.400 C 219.783 256.896,219.656 256.822,219.656 257.200 M57.979 258.655 C 57.758 259.236,57.652 259.785,57.743 259.876 C 57.833 259.967,58.099 259.492,58.333 258.820 C 58.853 257.328,58.539 257.182,57.979 258.655 M212.900 258.012 C 212.305 258.252,212.018 258.683,212.054 259.287 C 212.105 260.127,212.122 260.134,212.273 259.371 C 212.363 258.915,212.924 258.349,213.519 258.113 C 214.113 257.878,214.420 257.677,214.200 257.668 C 213.980 257.658,213.395 257.813,212.900 258.012 M303.600 259.883 C 314.159 260.166,323.109 260.174,322.939 259.900 C 322.836 259.735,317.498 259.638,311.076 259.685 C 304.654 259.732,301.290 259.821,303.600 259.883 M331.634 261.400 C 331.634 261.620,331.978 262.430,332.400 263.200 C 332.822 263.970,333.166 264.420,333.166 264.200 C 333.166 263.980,332.822 263.170,332.400 262.400 C 331.978 261.630,331.634 261.180,331.634 261.400 M46.218 262.900 C 46.368 263.395,46.655 263.976,46.856 264.191 C 47.057 264.406,47.019 264.001,46.772 263.291 C 46.265 261.838,45.797 261.508,46.218 262.900 M235.309 263.873 C 234.379 264.823,233.758 265.600,233.928 265.600 C 234.329 265.600,237.403 262.457,237.174 262.280 C 237.078 262.207,236.239 262.923,235.309 263.873 M221.564 263.133 C 221.780 263.536,222.271 264.121,222.655 264.433 C 223.087 264.784,222.990 264.504,222.401 263.700 C 221.351 262.265,220.957 261.998,221.564 263.133 M288.672 265.419 C 287.732 267.389,287.864 267.724,288.847 265.862 C 289.293 265.016,289.587 264.254,289.501 264.167 C 289.414 264.081,289.041 264.644,288.672 265.419 M183.160 265.275 C 182.902 265.757,181.867 267.062,180.860 268.175 L 179.029 270.200 180.826 268.503 C 182.467 266.955,184.341 264.400,183.837 264.400 C 183.722 264.400,183.417 264.794,183.160 265.275 M170.600 265.200 C 169.493 265.482,169.477 265.509,170.400 265.547 C 170.950 265.569,171.670 265.413,172.000 265.200 C 172.681 264.760,172.329 264.760,170.600 265.200 M296.465 266.217 C 295.795 267.688,295.923 268.002,296.647 266.665 C 296.986 266.040,297.188 265.454,297.096 265.363 C 297.005 265.271,296.721 265.656,296.465 266.217 M225.200 265.982 C 225.530 266.205,226.145 266.391,226.567 266.394 C 227.590 266.402,227.271 266.173,225.800 265.844 C 224.924 265.648,224.762 265.685,225.200 265.982 M231.800 266.000 L 230.600 266.305 231.676 266.353 C 232.268 266.379,232.864 266.220,233.000 266.000 C 233.136 265.780,233.192 265.621,233.124 265.647 C 233.056 265.673,232.460 265.832,231.800 266.000 M228.305 266.683 C 228.802 266.779,229.522 266.775,229.905 266.675 C 230.287 266.575,229.880 266.496,229.000 266.501 C 228.120 266.505,227.807 266.587,228.305 266.683 M215.200 267.325 C 215.200 267.394,215.785 267.979,216.500 268.625 L 217.800 269.800 216.625 268.500 C 215.530 267.288,215.200 267.016,215.200 267.325 M240.981 268.900 L 239.400 270.600 241.100 269.019 C 242.035 268.149,242.800 267.384,242.800 267.319 C 242.800 267.016,242.452 267.319,240.981 268.900 M335.217 269.256 C 335.208 269.397,335.556 270.297,335.991 271.256 C 336.426 272.215,336.779 272.730,336.774 272.400 C 336.767 271.813,335.250 268.751,335.217 269.256 M171.800 272.400 C 170.722 272.674,170.702 272.706,171.600 272.713 C 172.150 272.717,173.050 272.576,173.600 272.400 C 174.944 271.969,173.492 271.969,171.800 272.400 M227.907 273.890 C 228.626 273.979,229.706 273.977,230.307 273.886 C 230.908 273.795,230.320 273.722,229.000 273.724 C 227.680 273.726,227.188 273.801,227.907 273.890 M50.832 274.251 C 50.783 274.945,51.876 275.725,52.188 275.219 C 52.331 274.989,52.182 274.800,51.857 274.800 C 51.532 274.800,51.176 274.575,51.065 274.300 C 50.938 273.986,50.851 273.968,50.832 274.251 M79.228 274.433 C 79.213 274.782,79.318 275.185,79.463 275.330 C 79.799 275.666,80.804 274.847,80.788 274.251 C 80.781 274.003,80.571 274.152,80.322 274.582 C 79.872 275.359,79.866 275.359,79.562 274.582 C 79.337 274.006,79.249 273.967,79.228 274.433 " stroke="none" fill="#a4a4c4" fill-rule="evenodd"></path><path id="path4" d="M229.105 218.283 C 229.602 218.379,230.322 218.375,230.705 218.275 C 231.087 218.175,230.680 218.096,229.800 218.101 C 228.920 218.105,228.607 218.187,229.105 218.283 M31.400 219.454 C 34.228 219.750,37.912 219.777,37.739 219.500 C 37.637 219.335,35.898 219.229,33.876 219.264 C 31.854 219.299,30.740 219.385,31.400 219.454 M97.513 219.495 C 98.676 219.576,100.476 219.576,101.513 219.493 C 102.551 219.411,101.600 219.345,99.400 219.346 C 97.200 219.347,96.351 219.414,97.513 219.495 M119.526 219.500 C 123.555 219.565,130.035 219.565,133.926 219.499 C 137.817 219.434,134.520 219.380,126.600 219.381 C 118.680 219.381,115.497 219.434,119.526 219.500 M156.900 219.497 C 158.385 219.574,160.815 219.574,162.300 219.497 C 163.785 219.420,162.570 219.357,159.600 219.357 C 156.630 219.357,155.415 219.420,156.900 219.497 M253.061 219.500 C 252.892 219.773,265.192 219.767,279.400 219.487 C 282.480 219.426,277.856 219.337,269.124 219.288 C 260.392 219.240,253.164 219.335,253.061 219.500 M345.273 219.499 C 349.604 219.564,356.804 219.564,361.273 219.500 C 365.743 219.435,362.200 219.382,353.400 219.382 C 344.600 219.382,340.943 219.435,345.273 219.499 M141.342 223.400 C 141.341 225.380,141.408 226.240,141.492 225.312 C 141.576 224.384,141.577 222.764,141.495 221.712 C 141.412 220.660,141.343 221.420,141.342 223.400 M285.342 223.400 C 285.341 225.380,285.408 226.240,285.492 225.312 C 285.576 224.384,285.577 222.764,285.495 221.712 C 285.412 220.660,285.343 221.420,285.342 223.400 M369.740 223.200 C 369.740 225.070,369.809 225.835,369.893 224.900 C 369.977 223.965,369.977 222.435,369.893 221.500 C 369.809 220.565,369.740 221.330,369.740 223.200 M175.200 222.525 C 175.200 222.594,175.785 223.179,176.500 223.825 L 177.800 225.000 176.625 223.700 C 175.530 222.488,175.200 222.216,175.200 222.525 M229.300 225.876 C 229.685 225.976,230.315 225.976,230.700 225.876 C 231.085 225.775,230.770 225.693,230.000 225.693 C 229.230 225.693,228.915 225.775,229.300 225.876 M161.767 234.600 C 161.767 238.780,161.826 240.436,161.898 238.279 C 161.971 236.123,161.970 232.703,161.898 230.679 C 161.825 228.656,161.766 230.420,161.767 234.600 M357.387 249.800 C 357.387 262.340,357.438 267.412,357.500 261.072 C 357.562 254.731,357.562 244.471,357.500 238.272 C 357.438 232.072,357.387 237.260,357.387 249.800 M163.491 249.089 C 164.201 249.177,165.461 249.179,166.291 249.092 C 167.121 249.005,166.540 248.933,165.000 248.931 C 163.460 248.929,162.781 249.000,163.491 249.089 M161.768 257.400 C 161.768 261.800,161.826 263.655,161.898 261.521 C 161.970 259.388,161.970 255.788,161.899 253.521 C 161.827 251.255,161.768 253.000,161.768 257.400 M190.934 255.600 C 190.934 257.250,191.005 257.925,191.091 257.100 C 191.178 256.275,191.178 254.925,191.091 254.100 C 191.005 253.275,190.934 253.950,190.934 255.600 M141.342 269.000 C 141.341 270.980,141.408 271.840,141.492 270.912 C 141.576 269.984,141.577 268.364,141.495 267.312 C 141.412 266.260,141.343 267.020,141.342 269.000 M119.526 273.100 C 123.555 273.165,130.035 273.165,133.926 273.099 C 137.817 273.034,134.520 272.980,126.600 272.981 C 118.680 272.981,115.497 273.034,119.526 273.100 M158.121 273.098 C 160.277 273.171,163.697 273.170,165.721 273.098 C 167.744 273.025,165.980 272.966,161.800 272.967 C 157.620 272.967,155.964 273.026,158.121 273.098 M267.312 273.095 C 268.364 273.177,269.984 273.176,270.912 273.092 C 271.840 273.008,270.980 272.941,269.000 272.942 C 267.020 272.943,266.260 273.012,267.312 273.095 M287.500 273.095 C 288.655 273.176,290.545 273.176,291.700 273.095 C 292.855 273.014,291.910 272.948,289.600 272.948 C 287.290 272.948,286.345 273.014,287.500 273.095 M330.713 273.095 C 331.876 273.176,333.676 273.176,334.713 273.093 C 335.751 273.011,334.800 272.945,332.600 272.946 C 330.400 272.947,329.551 273.014,330.713 273.095 M351.712 273.095 C 352.764 273.177,354.384 273.176,355.312 273.092 C 356.240 273.008,355.380 272.941,353.400 272.942 C 351.420 272.943,350.660 273.012,351.712 273.095 " stroke="none" fill="#9c94c4" fill-rule="evenodd"></path></g></svg>